<svg width="2646" height="1369" viewBox="0 0 2646 1369" fill="none" xmlns="http://www.w3.org/2000/svg">
<path fill-rule="evenodd" clip-rule="evenodd" d="M1639.39 279.611C1639.39 410.641 1532.36 517.551 1399.83 517.551C1267.3 517.551 1160.28 411.19 1160.28 279.611C1160.28 148.03 1267.3 42.2158 1399.28 42.2158C1531.26 42.2158 1638.83 148.578 1638.83 280.159L1639.39 279.611ZM1545.12 279.611C1545.12 199.565 1479.68 134.87 1399.28 134.87C1318.87 134.87 1253.44 199.565 1253.44 279.611C1253.44 359.654 1318.87 424.349 1399.28 424.349C1479.68 424.349 1545.12 359.654 1545.12 279.611Z" fill="black"/>
<path fill-rule="evenodd" clip-rule="evenodd" d="M1069.89 186.406V93.2028H975.617V0H731.07V186.406H637.355V279.611C637.355 410.641 744.933 517.551 876.912 517.551C1008.89 517.551 1116.47 411.19 1116.47 279.611V186.406H1069.89ZM731.07 279.611V186.406H825.339V93.2028H975.617V186.406H1022.75V279.611C1022.75 359.654 957.318 424.349 876.912 424.349C796.505 424.349 731.07 359.654 731.07 279.611Z" fill="black"/>
<path d="M491.513 518.1H586.338V41.6676H397.798V134.87H491.513V518.1Z" fill="black"/>
<path fill-rule="evenodd" clip-rule="evenodd" d="M2211.11 470.95C2168.41 506.039 2105.75 500.009 2070.81 457.793C2035.88 415.578 2041.42 353.076 2084.12 318.535C2126.82 283.996 2189.48 289.478 2224.42 331.694C2259.35 373.91 2253.81 436.411 2211.11 470.95ZM2182.27 366.233C2166.19 347.046 2137.91 344.303 2118.5 360.203C2099.09 376.103 2096.32 404.063 2112.4 423.252C2128.48 442.442 2156.76 445.183 2176.17 429.282C2195.58 413.385 2198.35 385.422 2182.27 366.233Z" fill="black"/>
<path fill-rule="evenodd" clip-rule="evenodd" d="M1777.47 179.279C1742.53 137.063 1748.08 74.5617 1790.77 40.0231C1833.47 4.93374 1896.14 10.9639 1931.07 53.1797C1966.01 95.3955 1960.46 157.897 1917.76 192.438C1875.06 226.977 1812.4 221.495 1777.47 179.279ZM1819.61 144.74C1835.69 163.927 1863.97 166.671 1883.38 150.77C1902.79 134.87 1905.56 106.91 1889.48 87.7208C1873.4 68.5316 1845.12 65.7906 1825.71 81.6907C1806.3 97.5883 1803.53 125.551 1819.61 144.74Z" fill="black"/>
<path d="M2196.69 16.9965H2118.5L1809.63 493.977H1887.82L2196.69 16.9965Z" fill="black"/>
<path d="M497.413 930.943C497.413 1115.7 369.317 1232.48 185.767 1232.48H0V913.395H93.7152V1131.6H185.213C302.773 1131.6 378.744 1057.04 378.744 929.846C378.744 802.65 302.773 729.183 185.213 729.183H0V629.402H185.767C369.871 629.402 497.413 746.182 497.413 930.943Z" fill="black"/>
<path d="M563.402 1223.71H658.226V774.139H563.402V1223.71Z" fill="black"/>
<path d="M1697.97 657.364L1603.14 657.913V788.941H1509.43V882.148H1603.14V1223.71H1807.77V1140.92H1697.97V657.364Z" fill="black"/>
<path d="M2531.98 1142.02V611.859H2437.16V1224.8H2645.1V1142.02H2531.98Z" fill="black"/>
<path d="M2214.24 794.976H2307.95V701.773H2214.24V794.976Z" fill="black"/>
<path d="M2342.33 518.104V611.306H2437.16V518.104H2342.33Z" fill="black"/>
<path fill-rule="evenodd" clip-rule="evenodd" d="M2284.64 882.504C2299.93 913.86 2308.5 949.077 2308.5 986.315V1224.26H2214.79V1224.01H2213.6V1175.81C2173.33 1205.98 2123.31 1224.26 2068.95 1224.26C1936.42 1224.26 1829.39 1117.9 1829.39 986.315C1829.39 958.693 1834.11 932.187 1842.78 907.538C1874.99 813.664 1964.03 746.196 2068.82 746.196C2164.04 746.196 2246.25 801.9 2284.64 882.504ZM2213.22 969.163C2204.67 897.226 2142.97 841.577 2068.39 841.577C2016.14 841.577 1970.22 868.893 1944.46 909.988C1931.19 931.906 1923.56 957.616 1923.56 985.105C1923.56 1065.33 1988.59 1130.37 2068.82 1130.37C2145.03 1130.37 2207.54 1071.69 2213.6 997.037V985.866H2214.09L2214.09 985.105C2214.09 979.717 2213.79 974.398 2213.22 969.163Z" fill="black"/>
<path d="M563.957 629.402V722.604H657.672V629.402H563.957Z" fill="black"/>
<path d="M1346.95 1238.51H1441.78V788.941H1346.95V1238.51Z" fill="black"/>
<path d="M1441.22 643.655H1347.51V736.857H1441.22V643.655Z" fill="black"/>
<path d="M1233.27 800.458H1139.56V707.255H1233.27V800.458Z" fill="black"/>
<path d="M1139 1369H847.875V1275.8H1139V1369Z" fill="black"/>
<path d="M1139.56 1275.8H1233.27V1182.59H1139.56V1275.8Z" fill="black"/>
<path fill-rule="evenodd" clip-rule="evenodd" d="M1232.09 991.417C1232.09 1122.94 1125.47 1229.56 993.94 1229.56C862.413 1229.56 755.79 1122.94 755.79 991.417C755.79 859.89 862.413 753.264 993.94 753.264C1125.47 753.264 1232.09 859.89 1232.09 991.417ZM1138.74 991.417C1138.74 1071.39 1073.91 1136.22 993.94 1136.22C913.967 1136.22 849.136 1071.39 849.136 991.417C849.136 911.44 913.967 846.61 993.94 846.61C1073.91 846.61 1138.74 911.44 1138.74 991.417Z" fill="black"/>
</svg>
