<svg xmlns="http://www.w3.org/2000/svg" viewBox="0 0 20 20" fill="none" width="20" height="20">
  <path fill="currentColor" fill-rule="evenodd" d="M6.93374 4.4595C7.2852 3.09398 8.52477 2.085 10 2.085 11.47523 2.085 12.7148 3.09398 13.0663 4.4595L16.332 4.4595C16.7691 4.4595 17.1235 4.81387 17.1235 5.251 17.1235 5.68813 16.7691 6.0425 16.332 6.0425L15.5405 6.0425 15.5405 16.332C15.5405 17.2063 14.8318 17.915 13.9575 17.915L6.0425 17.915C5.16823 17.915 4.4595 17.2063 4.4595 16.332L4.4595 6.0425 3.668 6.0425C3.23087 6.0425 2.8765 5.68813 2.8765 5.251 2.8765 4.81387 3.23087 4.4595 3.668 4.4595zM8.62878 4.4595C8.90248 3.98634 9.41407 3.668 10 3.668 10.58593 3.668 11.09751 3.98634 11.37122 4.4595zM8.417 8.417C8.85413 8.417 9.2085 8.77137 9.2085 9.2085L9.2085 13.166C9.2085 13.6031 8.85413 13.9575 8.417 13.9575 7.97987 13.9575 7.6255 13.6031 7.6255 13.166L7.6255 9.2085C7.6255 8.77137 7.97987 8.417 8.417 8.417ZM11.583 8.417C12.02013 8.417 12.3745 8.77137 12.3745 9.2085L12.3745 13.166C12.3745 13.6031 12.02013 13.9575 11.583 13.9575 11.14587 13.9575 10.7915 13.6031 10.7915 13.166L10.7915 9.2085C10.7915 8.77137 11.14587 8.417 11.583 8.417Z" clip-rule="evenodd"/>
</svg>
