<svg xmlns="http://www.w3.org/2000/svg" version="1.1" xmlns:xlink="http://www.w3.org/1999/xlink" width="1000" height="1000"><metadata><rdf:RDF xmlns:rdf="http://www.w3.org/1999/02/22-rdf-syntax-ns#" xmlns:dc="http://purl.org/dc/elements/1.1/"><rdf:Description><dc:creator>RealFaviconGenerator</dc:creator><dc:source>https://realfavicongenerator.net</dc:source></rdf:Description></rdf:RDF></metadata><g clip-path="url(#SvgjsClipPath1177)"><rect width="1000" height="1000" fill="#ffffff"></rect><g transform="matrix(19.444444444444443,0,0,19.444444444444443,150,247.22222222222223)"><svg xmlns="http://www.w3.org/2000/svg" width="36" height="26" viewBox="0 0 36 26" fill="none"><path d="M18.8271 0.0566027C13.0732 0.329003 8.73473 3.79238 6.53198 8.01636H9.57488C11.1846 5.62489 13.6839 3.69686 16.8432 2.97518C19.3637 2.39854 23.0561 2.51528 24.3834 2.77353C26.7203 3.22989 28.383 5.54353 28.3547 8.11895C28.3265 10.7474 26.4061 13.7509 20.3662 13.6377H1.10843L0 16.2662H20.3451C27.5781 16.4006 30.9317 12.4703 30.9776 8.15079C31.0164 4.50699 28.5383 0.612016 24.4964 0.130893C23.688 0.0353763 22.5655 0 21.4676 0C20.4792 0 19.5155 0.0283021 18.8307 0.0601411" fill="#121212"></path><path d="M25.8823 24.1907C25.9635 24.272 26.0729 24.318 26.193 24.318C26.0729 24.318 25.9635 24.3675 25.8823 24.4489V24.1907ZM25.8823 23.3133C25.9635 23.3947 26.0729 23.4442 26.193 23.4442C26.0729 23.4442 25.9635 23.4937 25.8823 23.5716V23.3133ZM5.19396 17.2356C6.08353 20.7096 8.6993 23.6494 13.3448 24.7814C14.0085 24.9442 15.4876 25.16 17.7044 25.16C21.3757 25.16 25.8788 25.1741 25.8788 25.1741V25.068C25.96 25.1458 26.0694 25.1953 26.1894 25.1953C26.3871 25.1953 26.553 25.0645 26.6095 24.884C26.6413 25.0751 26.8072 25.2201 27.0084 25.2201C27.2308 25.2201 27.4108 25.0397 27.4108 24.8133C27.4108 24.5869 27.2308 24.41 27.0084 24.41C26.8284 24.41 26.6766 24.5267 26.6236 24.6895C26.5919 24.4772 26.4118 24.3145 26.1894 24.3145C26.3977 24.3145 26.5742 24.1659 26.6166 23.9713C26.6625 24.1447 26.8213 24.272 27.0084 24.272C27.2308 24.272 27.4108 24.0916 27.4108 23.8687C27.4108 23.6459 27.2308 23.4654 27.0084 23.4654C26.8178 23.4654 26.6589 23.5963 26.6166 23.7767C26.5707 23.5857 26.3942 23.4442 26.193 23.4442C26.4083 23.4442 26.5883 23.285 26.6236 23.0798C26.673 23.2461 26.8284 23.3664 27.0084 23.3664C27.2308 23.3664 27.4108 23.186 27.4108 22.9631C27.4108 22.7402 27.2308 22.5598 27.0084 22.5598C26.8107 22.5598 26.6448 22.7013 26.6095 22.8888C26.5566 22.7048 26.3871 22.5704 26.1894 22.5704C26.0694 22.5704 25.96 22.6199 25.8788 22.7013V22.5527C25.8788 22.5527 20.8462 22.5386 16.9984 22.5386C14.8345 22.5386 12.9106 21.9513 12.2435 21.6648C9.97717 20.699 8.58633 19.107 7.92268 17.2391H5.19043L5.19396 17.2356Z" fill="#121212"></path><path d="M16.8328 20.7697C13.5004 20.7308 11.333 19.2698 10.2881 17.2356H10.2916H13.6381C14.3865 17.7839 15.4384 18.1271 16.8434 18.1412L30.8463 18.1377C31.0404 18.1448 31.1993 18.2757 31.2522 18.4561C31.2875 18.2686 31.4499 18.1271 31.6476 18.1271C31.87 18.1271 32.05 18.3075 32.05 18.5304C32.05 18.7533 31.87 18.9337 31.6476 18.9337C31.4675 18.9337 31.3122 18.8169 31.2628 18.6507C31.2275 18.8523 31.0545 19.008 30.8427 19.015C31.0439 19.0221 31.2099 19.1636 31.2557 19.3476C31.2981 19.1707 31.457 19.0363 31.6476 19.0363C31.87 19.0363 32.05 19.2132 32.05 19.4396C32.05 19.666 31.87 19.8464 31.6476 19.8464C31.464 19.8464 31.3052 19.719 31.2593 19.5457C31.2204 19.7367 31.051 19.8818 30.8463 19.8888C31.0616 19.8959 31.2346 20.0551 31.2663 20.2638C31.3193 20.1011 31.4711 19.9844 31.6511 19.9844C31.8735 19.9844 32.0535 20.1648 32.0535 20.3877C32.0535 20.6105 31.8735 20.791 31.6511 20.791C31.4499 20.791 31.284 20.6459 31.2522 20.4549C31.1957 20.6353 31.0298 20.7662 30.8321 20.7662C30.811 20.7662 30.7898 20.7627 30.7686 20.7627L16.8328 20.7697Z" fill="#121212"></path><path d="M18.2742 4.63781C15.5172 5.0128 13.3251 6.31467 11.8001 8.01629H16.075C17.7835 6.81702 22.1078 7.07173 22.5985 7.17786C23.0609 7.27691 23.2092 7.63422 23.1633 8.0269C23.1174 8.44788 22.7644 9.05282 21.656 9.04928H2.81118L1.69922 11.6707H21.6489C24.0529 11.6848 25.5602 10.1177 25.7649 8.3276C25.9626 6.61537 24.886 4.77932 22.722 4.54229C22.1219 4.47508 21.5359 4.44678 20.9641 4.44678C20.0427 4.44678 19.1496 4.52107 18.2706 4.64135" fill="#121212"></path><g opacity="0.8">
<path d="M32.4811 20.759C32.294 20.759 32.1387 20.6069 32.1387 20.4159C32.1387 20.2284 32.294 20.0727 32.4811 20.0727C32.6682 20.0727 32.8235 20.2248 32.8235 20.4159C32.8235 20.6069 32.6682 20.759 32.4811 20.759Z" fill="#121212"></path>
<path d="M32.4811 19.7862C32.294 19.7862 32.1387 19.634 32.1387 19.443C32.1387 19.252 32.294 19.0999 32.4811 19.0999C32.6682 19.0999 32.8235 19.252 32.8235 19.443C32.8235 19.634 32.6682 19.7862 32.4811 19.7862Z" fill="#121212"></path>
<path d="M32.4811 18.8699C32.294 18.8699 32.1387 18.7178 32.1387 18.5267C32.1387 18.3357 32.2905 18.1836 32.4811 18.1836C32.6717 18.1836 32.8235 18.3357 32.8235 18.5267C32.8235 18.7178 32.6682 18.8699 32.4811 18.8699Z" fill="#121212"></path>
</g><g opacity="0.5">
<path d="M33.4164 20.7095C33.2576 20.7095 33.1305 20.5822 33.1305 20.423C33.1305 20.2638 33.2576 20.1364 33.4164 20.1364C33.5753 20.1364 33.7023 20.2638 33.7023 20.423C33.7023 20.5822 33.5753 20.7095 33.4164 20.7095Z" fill="#121212"></path>
<path d="M33.4164 19.7331C33.2576 19.7331 33.1305 19.6022 33.1305 19.4466C33.1305 19.2874 33.2576 19.16 33.4164 19.16C33.5753 19.16 33.7023 19.2874 33.7023 19.4466C33.7023 19.6058 33.5753 19.7331 33.4164 19.7331Z" fill="#121212"></path>
<path d="M33.4129 18.8063C33.254 18.8063 33.127 18.6789 33.127 18.5197C33.127 18.3605 33.254 18.2332 33.4129 18.2332C33.5717 18.2332 33.6988 18.3605 33.6988 18.5197C33.6988 18.6789 33.5717 18.8063 33.4129 18.8063Z" fill="#121212"></path>
</g><g opacity="0.3">
<path d="M34.5984 20.6423C34.4748 20.6423 34.376 20.5432 34.376 20.4194C34.376 20.2956 34.4784 20.193 34.5984 20.193C34.7184 20.193 34.8208 20.2991 34.8208 20.4194C34.8208 20.5397 34.7219 20.6423 34.5984 20.6423Z" fill="#121212"></path>
<path d="M34.5984 19.68C34.4784 19.68 34.376 19.5774 34.376 19.4536C34.376 19.3333 34.4748 19.2307 34.5984 19.2307C34.7219 19.2307 34.8208 19.3298 34.8208 19.4536C34.8208 19.5774 34.7184 19.68 34.5984 19.68Z" fill="#121212"></path>
<path d="M34.5984 18.7991C34.4748 18.7991 34.376 18.6965 34.376 18.5727C34.376 18.4489 34.4784 18.3499 34.5984 18.3499C34.7184 18.3499 34.8208 18.4489 34.8208 18.5727C34.8208 18.6965 34.7219 18.7991 34.5984 18.7991Z" fill="#121212"></path>
</g><g opacity="0.1">
<path d="M35.817 20.5857C35.7146 20.5857 35.6299 20.5043 35.6299 20.4017C35.6299 20.2991 35.7146 20.2178 35.817 20.2178C35.9193 20.2178 36.0005 20.3027 36.0005 20.4017C36.0005 20.5008 35.9193 20.5857 35.817 20.5857Z" fill="#121212"></path>
<path d="M35.8134 19.673C35.7111 19.673 35.6299 19.5916 35.6299 19.489C35.6299 19.39 35.7146 19.3051 35.8134 19.3051C35.9123 19.3051 35.997 19.3864 35.997 19.489C35.997 19.5916 35.9158 19.673 35.8134 19.673Z" fill="#121212"></path>
<path d="M35.817 18.7603C35.7146 18.7603 35.6299 18.6789 35.6299 18.5763C35.6299 18.4737 35.7146 18.3923 35.817 18.3923C35.9193 18.3923 36.0005 18.4772 36.0005 18.5763C36.0005 18.6753 35.9193 18.7603 35.817 18.7603Z" fill="#121212"></path>
</g><g opacity="0.8">
<path d="M32.4811 20.759C32.294 20.759 32.1387 20.6069 32.1387 20.4159C32.1387 20.2284 32.294 20.0727 32.4811 20.0727C32.6682 20.0727 32.8235 20.2248 32.8235 20.4159C32.8235 20.6069 32.6682 20.759 32.4811 20.759Z" fill="#121212"></path>
<path d="M32.4811 19.7862C32.294 19.7862 32.1387 19.634 32.1387 19.443C32.1387 19.252 32.294 19.0999 32.4811 19.0999C32.6682 19.0999 32.8235 19.252 32.8235 19.443C32.8235 19.634 32.6682 19.7862 32.4811 19.7862Z" fill="#121212"></path>
<path d="M32.4811 18.8699C32.294 18.8699 32.1387 18.7178 32.1387 18.5267C32.1387 18.3357 32.2905 18.1836 32.4811 18.1836C32.6717 18.1836 32.8235 18.3357 32.8235 18.5267C32.8235 18.7178 32.6682 18.8699 32.4811 18.8699Z" fill="#121212"></path>
</g><g opacity="0.5">
<path d="M33.4164 20.7095C33.2576 20.7095 33.1305 20.5822 33.1305 20.423C33.1305 20.2638 33.2576 20.1364 33.4164 20.1364C33.5753 20.1364 33.7023 20.2638 33.7023 20.423C33.7023 20.5822 33.5753 20.7095 33.4164 20.7095Z" fill="#121212"></path>
<path d="M33.4164 19.7331C33.2576 19.7331 33.1305 19.6022 33.1305 19.4466C33.1305 19.2874 33.2576 19.16 33.4164 19.16C33.5753 19.16 33.7023 19.2874 33.7023 19.4466C33.7023 19.6058 33.5753 19.7331 33.4164 19.7331Z" fill="#121212"></path>
<path d="M33.4129 18.8063C33.254 18.8063 33.127 18.6789 33.127 18.5197C33.127 18.3605 33.254 18.2332 33.4129 18.2332C33.5717 18.2332 33.6988 18.3605 33.6988 18.5197C33.6988 18.6789 33.5717 18.8063 33.4129 18.8063Z" fill="#121212"></path>
</g><g opacity="0.3">
<path d="M34.5984 20.6423C34.4748 20.6423 34.376 20.5432 34.376 20.4194C34.376 20.2956 34.4784 20.193 34.5984 20.193C34.7184 20.193 34.8208 20.2991 34.8208 20.4194C34.8208 20.5397 34.7219 20.6423 34.5984 20.6423Z" fill="#121212"></path>
<path d="M34.5984 19.68C34.4784 19.68 34.376 19.5774 34.376 19.4536C34.376 19.3333 34.4748 19.2307 34.5984 19.2307C34.7219 19.2307 34.8208 19.3298 34.8208 19.4536C34.8208 19.5774 34.7184 19.68 34.5984 19.68Z" fill="#121212"></path>
<path d="M34.5984 18.7991C34.4748 18.7991 34.376 18.6965 34.376 18.5727C34.376 18.4489 34.4784 18.3499 34.5984 18.3499C34.7184 18.3499 34.8208 18.4489 34.8208 18.5727C34.8208 18.6965 34.7219 18.7991 34.5984 18.7991Z" fill="#121212"></path>
</g><g opacity="0.1">
<path d="M35.817 20.5857C35.7146 20.5857 35.6299 20.5043 35.6299 20.4017C35.6299 20.2991 35.7146 20.2178 35.817 20.2178C35.9193 20.2178 36.0005 20.3027 36.0005 20.4017C36.0005 20.5008 35.9193 20.5857 35.817 20.5857Z" fill="#121212"></path>
<path d="M35.8134 19.673C35.7111 19.673 35.6299 19.5916 35.6299 19.489C35.6299 19.39 35.7146 19.3051 35.8134 19.3051C35.9123 19.3051 35.997 19.3864 35.997 19.489C35.997 19.5916 35.9158 19.673 35.8134 19.673Z" fill="#121212"></path>
<path d="M35.817 18.7603C35.7146 18.7603 35.6299 18.6789 35.6299 18.5763C35.6299 18.4737 35.7146 18.3923 35.817 18.3923C35.9193 18.3923 36.0005 18.4772 36.0005 18.5763C36.0005 18.6753 35.9193 18.7603 35.817 18.7603Z" fill="#121212"></path>
</g><g opacity="0.8">
<path d="M27.8444 25.1662C27.6573 25.1662 27.502 25.0141 27.502 24.8231C27.502 24.6356 27.6573 24.4799 27.8444 24.4799C28.0315 24.4799 28.1868 24.6321 28.1868 24.8231C28.1868 25.0141 28.0315 25.1662 27.8444 25.1662Z" fill="#121212"></path>
<path d="M27.8444 24.1934C27.6573 24.1934 27.502 24.0413 27.502 23.8502C27.502 23.6592 27.6573 23.5071 27.8444 23.5071C28.0315 23.5071 28.1868 23.6592 28.1868 23.8502C28.1868 24.0413 28.0315 24.1934 27.8444 24.1934Z" fill="#121212"></path>
<path d="M27.8444 23.2771C27.6573 23.2771 27.502 23.125 27.502 22.934C27.502 22.7429 27.6537 22.5908 27.8444 22.5908C28.035 22.5908 28.1868 22.7429 28.1868 22.934C28.1868 23.125 28.0315 23.2771 27.8444 23.2771Z" fill="#121212"></path>
</g><g opacity="0.5">
<path d="M28.7797 25.1167C28.6208 25.1167 28.4938 24.9894 28.4938 24.8302C28.4938 24.671 28.6208 24.5436 28.7797 24.5436C28.9385 24.5436 29.0656 24.671 29.0656 24.8302C29.0656 24.9894 28.9385 25.1167 28.7797 25.1167Z" fill="#121212"></path>
<path d="M28.7797 24.1404C28.6208 24.1404 28.4938 24.0095 28.4938 23.8538C28.4938 23.6946 28.6208 23.5673 28.7797 23.5673C28.9385 23.5673 29.0656 23.6946 29.0656 23.8538C29.0656 24.013 28.9385 24.1404 28.7797 24.1404Z" fill="#121212"></path>
<path d="M28.7762 23.2135C28.6173 23.2135 28.4902 23.0861 28.4902 22.9269C28.4902 22.7677 28.6173 22.6404 28.7762 22.6404C28.935 22.6404 29.0621 22.7677 29.0621 22.9269C29.0621 23.0861 28.935 23.2135 28.7762 23.2135Z" fill="#121212"></path>
</g><g opacity="0.3">
<path d="M29.9626 25.0492C29.8391 25.0492 29.7402 24.9502 29.7402 24.8264C29.7402 24.7026 29.8426 24.6 29.9626 24.6C30.0827 24.6 30.185 24.7061 30.185 24.8264C30.185 24.9467 30.0862 25.0492 29.9626 25.0492Z" fill="#121212"></path>
<path d="M29.9626 24.087C29.8426 24.087 29.7402 23.9844 29.7402 23.8606C29.7402 23.7403 29.8391 23.6377 29.9626 23.6377C30.0862 23.6377 30.185 23.7368 30.185 23.8606C30.185 23.9844 30.0827 24.087 29.9626 24.087Z" fill="#121212"></path>
<path d="M29.9626 23.2061C29.8391 23.2061 29.7402 23.1035 29.7402 22.9797C29.7402 22.8559 29.8426 22.7568 29.9626 22.7568C30.0827 22.7568 30.185 22.8559 30.185 22.9797C30.185 23.1035 30.0862 23.2061 29.9626 23.2061Z" fill="#121212"></path>
</g><g opacity="0.1">
<path d="M31.1803 24.9927C31.0779 24.9927 30.9932 24.9113 30.9932 24.8087C30.9932 24.7061 31.0779 24.6248 31.1803 24.6248C31.2826 24.6248 31.3638 24.7097 31.3638 24.8087C31.3638 24.9078 31.2826 24.9927 31.1803 24.9927Z" fill="#121212"></path>
<path d="M31.1767 24.08C31.0744 24.08 30.9932 23.9986 30.9932 23.896C30.9932 23.7969 31.0779 23.712 31.1767 23.712C31.2756 23.712 31.3603 23.7934 31.3603 23.896C31.3603 23.9986 31.2791 24.08 31.1767 24.08Z" fill="#121212"></path>
<path d="M31.1803 23.1672C31.0779 23.1672 30.9932 23.0859 30.9932 22.9833C30.9932 22.8807 31.0779 22.7993 31.1803 22.7993C31.2826 22.7993 31.3638 22.8842 31.3638 22.9833C31.3638 23.0823 31.2826 23.1672 31.1803 23.1672Z" fill="#121212"></path>
</g></svg></g></g><defs><clipPath id="SvgjsClipPath1177"><rect width="1000" height="1000" x="0" y="0" rx="200" ry="200"></rect></clipPath></defs></svg>