<svg viewBox="-2.1 -4.1 24 24" fill="none" xmlns="http://www.w3.org/2000/svg">
<path fill-rule="evenodd" clip-rule="evenodd" d="M2.9 1.8C2.29249 1.8 1.8 2.29249 1.8 2.9V5H18V2.89975C18 2.29238 17.5077 1.8 16.9 1.8H2.9ZM18 6.8H1.8V12.9C1.8 13.5075 2.29249 14 2.9 14H16.9C17.5075 14 18 13.5075 18 12.9V6.8ZM0 2.9C0 1.29837 1.29837 0 2.9 0H16.9C18.5015 0 19.8 1.29798 19.8 2.89975V12.9C19.8 14.5016 18.5016 15.8 16.9 15.8H2.9C1.29837 15.8 0 14.5016 0 12.9V2.9ZM4 9.9C4 9.40294 4.40294 9 4.9 9H7.9C8.39706 9 8.8 9.40294 8.8 9.9C8.8 10.3971 8.39706 10.8 7.9 10.8H4.9C4.40294 10.8 4 10.3971 4 9.9Z" fill="currentColor"/>
</svg>
