<svg viewBox="-3.6 -2.1 24 24" fill="none" xmlns="http://www.w3.org/2000/svg">
<path fill-rule="evenodd" clip-rule="evenodd" d="M2.9 1.8C2.29249 1.8 1.8 2.29249 1.8 2.9V16.9C1.8 17.5075 2.29249 18 2.9 18H5.9C6.39706 18 6.8 18.4029 6.8 18.9C6.8 19.3971 6.39706 19.8 5.9 19.8H2.9C1.29837 19.8 0 18.5016 0 16.9V2.9C0 1.29837 1.29837 0 2.9 0H12.9C14.5016 0 15.8 1.29838 15.8 2.9V7.9C15.8 8.39706 15.3971 8.8 14.9 8.8C14.4029 8.8 14 8.39706 14 7.9V2.9C14 2.29249 13.5075 1.8 12.9 1.8H2.9ZM4 4.9C4 4.40294 4.40294 4 4.9 4H10.9C11.3971 4 11.8 4.40294 11.8 4.9C11.8 5.39706 11.3971 5.8 10.9 5.8H4.9C4.40294 5.8 4 5.39706 4 4.9ZM4 8.9C4 8.40294 4.40294 8 4.9 8H7.9C8.39706 8 8.8 8.40294 8.8 8.9C8.8 9.39706 8.39706 9.8 7.9 9.8H4.9C4.40294 9.8 4 9.39706 4 8.9ZM10 13.9C10 12.2984 11.2984 11 12.9 11C14.5016 11 15.8 12.2984 15.8 13.9V14.2263C16.3954 14.5471 16.8 15.1763 16.8 15.9V17.9C16.8 18.9493 15.9493 19.8 14.9 19.8H10.9C9.85066 19.8 9 18.9493 9 17.9V15.9C9 15.1763 9.40463 14.5471 10 14.2263V13.9ZM11.8 14H14V13.9C14 13.2925 13.5075 12.8 12.9 12.8C12.2925 12.8 11.8 13.2925 11.8 13.9V14ZM10.9 15.8C10.8448 15.8 10.8 15.8448 10.8 15.9V17.9C10.8 17.9552 10.8448 18 10.9 18H14.9C14.9552 18 15 17.9552 15 17.9V15.9C15 15.8448 14.9552 15.8 14.9 15.8H10.9Z" fill="currentColor"/>
</svg>
