<svg xmlns="http://www.w3.org/2000/svg" width="33" height="33" viewBox="0 0 33 33" fill="none">
	<path d="M16.4673 0C20.1765 0 23.0148 0.000649914 25.2637 0.332033C27.4978 0.661342 29.1002 1.31067 30.3622 2.57242C31.6141 3.82443 32.2599 5.42667 32.5871 7.66442C32.9163 9.91575 32.9167 12.7585 32.9167 16.4673C32.9167 20.1767 32.9163 23.0202 32.5871 25.2718C32.2599 27.5094 31.6141 29.1102 30.3622 30.3622C29.1102 31.6142 27.5094 32.2599 25.2718 32.5871C23.0203 32.9163 20.1767 32.9167 16.4673 32.9167C12.7582 32.9167 9.915 32.9163 7.66113 32.5871C5.42132 32.2599 3.81448 31.6141 2.5529 30.3613C1.30148 29.1095 0.656717 27.509 0.32959 25.2718C0.000392497 23.0202 0 20.1767 0 16.4673C0 12.7582 0.000410825 9.915 0.32959 7.66117C0.656633 5.42233 1.30208 3.81666 2.55371 2.55534C3.81528 1.30264 5.42139 0.656784 7.66113 0.329592C9.915 0.000416835 12.7582 0 16.4673 0Z" fill="white"/>
	<path d="M22.0548 15.4867L22.0208 15.5408C22.0208 13.9778 22.0208 16.3608 22.0208 12.5875V11.1869C22.0102 10.3773 21.691 9.66761 20.8973 9.32211C20.5675 9.5157 20.1909 9.77578 19.8952 10.0234L19.8079 10.0984C19.8632 10.217 19.9398 10.5625 19.8845 10.8102C19.8738 10.8435 19.8739 10.8539 19.8632 10.8851C19.4334 10.9288 19.0483 11.2306 18.6504 11.3804C18.5398 11.4241 18.4418 11.4554 18.3313 11.4783C18.1653 11.3055 18.1099 11.0579 18.0674 10.8643C18.0227 10.6374 18.0333 10.4002 18.0227 10.1317C18.0887 9.8612 18.1333 9.62595 18.078 9.43028C18.1121 9.43028 18.144 9.46361 18.1993 9.50528C18.178 9.35328 18.1227 9.26803 18.0439 9.14936C18.0992 9.14936 18.144 9.15978 18.2206 9.1827C18.1865 9.02036 18.1546 8.98911 18.0439 8.88086C18.1312 8.84761 18.1865 8.79553 18.2099 8.74145C17.9568 8.75186 17.7908 8.64361 17.5716 8.47086C17.429 8.3627 17.1971 8.28778 17.0205 8.26695C16.7779 8.24611 16.3034 8.25653 16.3587 8.60203C16.2481 8.55828 16.0949 8.52711 16.0162 8.54786C15.9608 8.55828 15.9055 8.59161 15.8843 8.61245V8.36478H16.0502C16.1162 8.36478 16.1821 8.38553 16.2374 8.4397C16.2715 8.39595 16.2928 8.33145 16.2928 8.25653C16.2928 8.19203 16.2715 8.12753 16.2374 8.07336C16.1821 8.12753 16.1162 8.13786 16.0502 8.14828H15.8843V7.98595C15.8843 7.92145 15.9055 7.85695 15.9503 7.79245C15.9055 7.75911 15.8396 7.73828 15.7736 7.73828C15.7077 7.73828 15.6417 7.75911 15.597 7.79245C15.6523 7.84653 15.6629 7.91103 15.6736 7.98595V8.14828H15.5076C15.4417 8.14828 15.3757 8.12753 15.3204 8.07336C15.2863 8.11711 15.2651 8.18161 15.2651 8.25653C15.2651 8.32103 15.2863 8.38553 15.3204 8.4397C15.3757 8.38553 15.4417 8.37511 15.5076 8.36478H15.6736V8.4397V9.30128C15.6736 9.34503 15.6289 9.38661 15.6076 9.41995C15.6736 9.46361 15.7502 9.55936 15.7948 9.64678C15.8396 9.56145 15.9162 9.47403 15.9822 9.41995C15.9481 9.38661 15.9162 9.34503 15.9162 9.30128V9.0432C16.0822 9.12853 16.4672 9.36586 16.5119 9.52811C16.5566 9.70086 16.5012 9.92778 16.5012 10.1754C16.4907 10.4876 16.28 11.1994 15.9055 11.4804C15.3885 11.395 14.9353 10.9413 14.4054 10.8872L14.3947 10.8435C14.3182 10.5959 14.4054 10.2399 14.4608 10.1004L14.3735 10.0255C14.0863 9.77786 13.7011 9.51986 13.3713 9.3242C12.5564 9.68003 12.2351 10.3919 12.2244 11.1889V14.7479C12.2032 14.7479 12.1798 14.7479 12.1585 14.7583C12.1372 14.7686 12.1244 14.779 12.1138 14.8019L11.9713 14.7915C12.1265 14.5979 12.1925 14.3919 12.0159 14.0153C11.9393 14.0902 11.884 14.1672 11.8393 14.2733C11.7287 14.0464 11.4542 13.9279 11.4202 13.9174C11.4095 13.9507 11.3754 14.24 11.4648 14.446C11.3648 14.4253 11.2669 14.4357 11.1562 14.446C11.3648 14.8019 11.5095 14.8664 11.818 14.8769L11.7414 14.9851C11.7202 14.9851 11.6968 14.9851 11.6754 14.9955C11.6202 15.0163 11.5988 15.0934 11.6308 15.1474C11.6521 15.2015 11.7181 15.2224 11.7733 15.2016C11.8287 15.1808 11.85 15.1037 11.818 15.0496C11.818 15.0392 11.8073 15.0392 11.8073 15.0289L11.8521 14.9539L12.0734 15.3951C11.918 15.266 11.7542 15.2328 11.5883 15.266C11.6436 15.3514 11.6883 15.4284 11.7436 15.4929C11.6563 15.4929 11.5669 15.5034 11.4903 15.5262C11.7222 15.8821 11.9648 16.0215 12.218 16.0319V16.2484C12.2074 16.2692 12.2074 16.3025 12.218 16.3338V16.5273C12.1733 16.5273 12.1181 16.5377 12.0755 16.5481C12.1202 16.6334 12.1755 16.7 12.218 16.752V16.8061C12.1733 16.8166 12.1414 16.8269 12.0968 16.8394C12.1414 16.8936 12.1733 16.9477 12.218 17.0018V19.3848C12.218 19.5138 12.218 19.7948 12.1627 19.9239C12.5266 19.7407 12.9117 19.4056 13.0564 19.0289V19.1579C13.1777 19.083 13.3862 18.7375 13.5075 18.5752C13.5628 18.5752 13.5734 18.5649 13.6288 18.5544L13.5841 18.6189C13.5628 18.6189 13.5394 18.6189 13.5182 18.6293C13.4628 18.6501 13.4415 18.7271 13.4735 18.7813C13.4948 18.8354 13.5607 18.8562 13.616 18.8354C13.6713 18.802 13.6927 18.7375 13.6713 18.6834C13.6713 18.673 13.6607 18.673 13.6607 18.6626L13.7053 18.5877L13.7926 18.7709L13.716 18.8354C13.6288 18.8999 13.5948 18.9644 13.616 19.0289C13.5288 19.1143 13.616 19.2994 13.6927 19.364C13.6927 19.3432 13.6927 19.3203 13.7033 19.3099C13.682 19.3536 13.7586 19.4618 13.8033 19.4618C13.782 19.5367 13.9139 19.6554 13.9586 19.6345C13.9479 19.6886 14.0586 19.7864 14.1246 19.7428L14.2352 19.6449C14.2565 19.7303 14.2692 19.8489 14.2352 20.0009C14.3565 20.0217 14.4991 20.0987 14.5884 20.1528C14.5884 20.0445 14.6224 19.8718 14.6757 19.7761C14.5544 19.7324 14.4671 19.6574 14.3778 19.5492L14.3672 19.5159C14.4777 19.4514 14.4991 19.3973 14.5224 19.2994C14.5565 19.1809 14.5991 19.16 14.6543 19.083C14.8757 18.7917 15.1289 18.5232 15.3608 18.2526L15.3948 18.3379C15.5162 18.1215 15.7481 17.9071 15.946 17.7552C16.0119 17.7885 16.0885 17.8094 16.1545 17.8405C16.2311 17.8739 16.3204 17.905 16.3971 17.9488C16.2417 18.9519 15.4927 19.749 14.8651 20.5045C15.1736 20.6127 15.4608 20.7314 15.7247 20.8708C16.0226 20.5357 16.2971 20.1049 16.5183 19.7178C16.3757 20.159 16.1651 20.6668 15.9778 21.0123C16.463 21.2933 16.9034 21.6804 17.1353 22.0259C17.3673 21.6804 17.8078 21.2933 18.2929 21.0123C18.1057 20.6668 17.8971 20.1611 17.7525 19.7178C17.961 20.1174 18.2483 20.5378 18.5461 20.8708C18.8099 20.7314 19.0973 20.6127 19.4058 20.5045C18.7993 19.7615 18.0269 18.9415 17.8738 17.9384C17.9503 17.905 18.0163 17.8739 18.095 17.8405C18.1716 17.8072 18.261 17.776 18.3376 17.7427C18.5355 17.8947 18.7674 18.109 18.8887 18.3254L18.9227 18.2401C19.1652 18.5211 19.4079 18.7895 19.6292 19.0705C19.6845 19.1454 19.7164 19.1684 19.7611 19.287C19.7824 19.3848 19.8057 19.4389 19.9037 19.5034C19.859 19.5138 19.8164 19.5367 19.793 19.5784C19.7696 19.62 19.7718 19.6533 19.7824 19.697C19.7058 19.7074 19.6823 19.7719 19.6951 19.8489C19.7292 19.9675 19.7292 20.0529 19.7057 20.1507C19.7717 20.0758 19.8483 20.032 19.9696 19.9988C20.0356 19.9779 20.0803 19.9134 20.0463 19.8469C20.0909 19.8364 20.1228 19.8135 20.1462 19.7719C20.1568 19.7511 20.1568 19.7386 20.1568 19.7178H20.1675C20.2334 19.7719 20.3441 19.6637 20.3334 19.6095C20.3782 19.6304 20.5101 19.5118 20.4887 19.4368C20.5335 19.4368 20.6101 19.3286 20.5888 19.2849C20.5994 19.2954 20.5994 19.3182 20.5994 19.339C20.6761 19.2641 20.7654 19.0914 20.6761 19.0039C20.6867 18.9394 20.6547 18.8749 20.576 18.8104C20.6313 18.8104 20.6867 18.7771 20.7186 18.725C20.7398 18.6814 20.7398 18.6272 20.7186 18.5731H20.7633C20.8846 18.7355 21.0931 19.058 21.2143 19.1226V18.9935C21.3569 19.3703 21.7548 19.7053 22.1081 19.8884C22.0633 19.7699 22.0528 19.4784 22.0528 19.3494V16.0819L22.3293 15.5761C22.3507 15.5324 22.3847 15.5012 22.4293 15.4784C22.4506 15.445 22.4634 15.4139 22.4506 15.3701C22.4847 15.3805 22.5166 15.3805 22.5506 15.3805C22.5847 15.2411 22.7826 14.7978 23.0464 14.8956C23.057 14.7437 23.0357 14.6375 22.9145 14.496C23.0017 14.4627 23.0252 14.3669 22.9804 14.292C23.0145 14.2817 23.0358 14.2712 23.057 14.2588C23.0123 14.1734 22.9911 14.0964 23.0123 14.0007C22.9358 14.0756 22.8698 14.0985 22.7698 14.1089C22.7698 14.1422 22.7697 14.163 22.7804 14.1942C22.6932 14.2047 22.6251 14.2692 22.6485 14.3669C22.4613 14.3462 22.3613 14.4003 22.24 14.4856C22.4719 14.6479 22.2059 15.0579 22.1081 15.1641C22.1293 15.1974 22.1421 15.2182 22.174 15.239C22.1399 15.2494 22.1187 15.2827 22.0974 15.3244C22.1081 15.3993 22.0868 15.4429 22.0633 15.4867M11.7691 15.1412C11.735 15.1516 11.7032 15.1412 11.6818 15.1079C11.6713 15.0746 11.6818 15.0434 11.7158 15.0225C11.7499 15.0122 11.7818 15.0225 11.8032 15.0559C11.8138 15.0892 11.8032 15.1204 11.7691 15.1412ZM11.7903 14.7957C11.6138 14.8165 11.4265 14.7519 11.2839 14.5044C11.4712 14.4835 11.6584 14.548 11.7903 14.7957ZM11.8563 14.7312C11.7691 14.6229 11.6797 14.5273 11.5477 14.4606C11.4924 14.342 11.4712 14.2129 11.4924 14.0299C11.6584 14.1277 11.7563 14.2234 11.8223 14.3316C11.801 14.471 11.8223 14.6229 11.8563 14.7312ZM22.6592 14.4835C22.5932 14.5044 22.5166 14.5272 22.4826 14.5814C22.5485 14.7208 22.4378 14.9373 22.274 15.2182C22.2528 15.2182 22.2293 15.2078 22.2187 15.1849C22.3953 14.9373 22.4826 14.6022 22.3506 14.5273C22.4273 14.4627 22.5485 14.4627 22.6592 14.4835ZM22.8911 14.2463C22.8698 14.2359 22.8464 14.2129 22.8358 14.1921C22.8911 14.1818 22.9358 14.1484 22.957 14.1172C22.9464 14.1609 22.9358 14.2026 22.957 14.2567C22.9464 14.2671 22.923 14.2671 22.8911 14.2463ZM22.7911 14.4399C22.7357 14.419 22.7144 14.3649 22.7358 14.3212C22.757 14.2879 22.8123 14.2775 22.8677 14.3004C22.923 14.3212 22.9443 14.3754 22.923 14.419C22.8889 14.4627 22.8357 14.4731 22.7911 14.4399ZM22.4166 15.3014C22.5592 14.9997 22.6804 14.7957 22.8358 14.7728C22.857 14.7187 22.8358 14.6438 22.8145 14.5793H22.8251C22.9017 14.6542 22.9677 14.752 22.957 14.8603C22.8144 14.7957 22.5932 15.0538 22.4826 15.3348C22.4613 15.3348 22.4378 15.3244 22.4166 15.3014ZM22.3825 15.2807C22.3613 15.2807 22.3485 15.2702 22.3378 15.2702C22.3272 15.2599 22.3166 15.2599 22.3038 15.2494C22.4251 15.0663 22.591 14.7437 22.5463 14.625C22.591 14.5501 22.6889 14.5502 22.7336 14.5397C22.7677 14.5834 22.8102 14.6688 22.7783 14.7437C22.6463 14.7645 22.4698 15.0788 22.3825 15.2827M21.2803 18.6564V17.5034L21.5229 17.0497C21.5782 17.0497 21.6229 17.0289 21.6548 16.9748C21.6761 16.9414 21.6761 16.9103 21.6655 16.8665C21.7102 16.8561 21.7527 16.8333 21.7761 16.7916C21.7995 16.7499 21.7974 16.6938 21.7761 16.6397C21.8102 16.6293 21.8314 16.6064 21.8527 16.5856V19.4098C21.4888 19.1621 21.2803 18.9144 21.2803 18.6543M21.4569 16.6272C21.4782 16.5835 21.5569 16.573 21.6229 16.6064C21.6888 16.6397 21.7229 16.7042 21.6995 16.7458C21.6782 16.7895 21.5995 16.7999 21.5336 16.7666C21.4676 16.7333 21.4335 16.6688 21.4569 16.6272ZM21.5122 16.8104C21.5676 16.8436 21.5995 16.8957 21.5888 16.9289C21.5676 16.9623 21.5016 16.9727 21.4463 16.9394C21.391 16.906 21.359 16.854 21.3697 16.8208C21.3803 16.7874 21.4463 16.7874 21.5122 16.8104ZM21.5888 16.444C21.6102 16.4108 21.6655 16.4108 21.7102 16.4336C21.7654 16.4669 21.7868 16.5086 21.7761 16.5419C21.7548 16.5751 21.6995 16.5751 21.6548 16.5523C21.5995 16.5189 21.5676 16.4774 21.5888 16.444ZM20.9378 18.4607C20.9931 18.3629 21.0037 18.2234 21.0143 18.1153C21.025 18.0507 21.025 17.9758 21.059 17.9217L21.125 17.7927V18.698C21.0803 18.6647 20.9824 18.5461 20.9378 18.4607ZM20.5952 18.5044C20.4952 18.4504 20.4633 18.3317 20.5186 18.2339C20.5186 18.2339 20.5186 18.2234 20.5293 18.2234C20.5846 18.1049 20.8271 17.9966 20.9143 17.8468L21.3888 16.9727C21.4101 16.9934 21.4335 17.0059 21.4654 17.0164L20.991 17.8905C20.9143 18.0424 20.9462 18.3109 20.8803 18.4191V18.4295C20.8143 18.5149 20.6931 18.5482 20.5931 18.5044M21.508 11.2494V12.1005L21.2761 11.9069V11.5719L21.508 11.2494ZM21.2761 11.2494V10.5271C21.3973 10.6894 21.4527 10.8081 21.4973 10.9684L21.2761 11.2494ZM21.2761 16.9519V16.9185C21.2761 16.9289 21.2867 16.9289 21.2867 16.9394L21.2761 16.9498V16.9519ZM20.8123 11.2701V12.1005L20.6037 11.9278V11.4865L20.8123 11.2701ZM20.5803 11.2805V10.6665C20.6463 10.7519 20.7356 10.883 20.8123 10.9684L20.5803 11.2805ZM20.8675 12.4668C20.9548 12.3919 21.0441 12.2399 21.1208 12.165V12.5959V17.2432L20.8228 17.803C20.7888 17.8572 20.7356 17.9113 20.6803 17.955C20.659 17.9758 20.6357 17.9987 20.6143 18.0091V12.5854V12.165L20.8675 12.4668ZM20.9228 12.1109V11.3138L21.1314 11.5948V11.9507L20.9228 12.113V12.1109ZM20.9016 10.9475C21.0016 10.8185 21.0676 10.5917 21.0994 10.473L21.1442 11.2826L20.9016 10.9475ZM20.4718 18.7313C20.4058 18.698 20.3717 18.6334 20.4058 18.5919C20.4271 18.5482 20.5058 18.5378 20.5612 18.571C20.6271 18.6044 20.6612 18.6689 20.6271 18.7104C20.6058 18.7646 20.5271 18.775 20.4718 18.7313ZM20.0313 16.3046V12.1421L20.2186 12.3898L20.4505 12.088V12.5834V17.8239C19.9867 17.5325 19.9867 16.983 19.9867 16.5627C20.0207 16.4878 20.0313 16.4004 20.0313 16.3046ZM19.5142 17.9758C19.4143 17.7823 19.2929 17.5991 19.2611 17.3723L19.2504 17.3285C19.4589 17.2099 19.6589 17.0704 19.8015 16.8874C19.8228 17.3514 20.0334 17.8905 20.4527 18.1382C20.442 18.1589 20.4313 18.1819 20.4186 18.2027C20.3973 18.2568 20.3845 18.3213 20.4079 18.3858C20.4186 18.4066 20.4186 18.4295 20.4292 18.4504C20.3845 18.4607 20.342 18.4836 20.3079 18.5356C20.2972 18.5689 20.2867 18.6002 20.2867 18.6334H20.276C20.1653 18.5794 19.9888 18.6127 19.9015 18.5585C19.8803 18.5482 19.8568 18.5149 19.8462 18.5044C19.8122 18.4711 19.7908 18.4295 19.7589 18.3962C19.6483 18.2672 19.5163 18.084 19.4058 17.955L19.5163 17.9758H19.5142ZM20.2739 12.0673V11.3118L20.4505 11.5053V11.9153L20.2739 12.0673ZM20.1739 10.8705C20.2952 10.7727 20.3824 10.6541 20.4505 10.5354V11.268C20.3398 11.1286 20.2632 10.9663 20.1739 10.8684M20.559 19.0955C20.5802 19.0955 20.5931 19.0851 20.6143 19.0622C20.625 19.0622 20.6356 19.0726 20.6356 19.0955C20.6463 19.16 20.6356 19.2349 20.5909 19.2787C20.6016 19.2245 20.5803 19.1496 20.5568 19.0955M20.3909 19.3869L20.159 19.1829C20.1037 19.1393 20.159 19.0643 20.2249 19.108C20.3015 19.1725 20.4016 19.2163 20.4782 19.2807C20.4994 19.3015 20.4994 19.3349 20.4887 19.3453L20.4675 19.3785C20.4462 19.3994 20.4122 19.3994 20.3909 19.389M20.3696 19.108C20.3767 19.0941 20.3838 19.0796 20.3909 19.0643C20.4569 19.1288 20.4909 19.1725 20.5016 19.237C20.4675 19.1934 20.4143 19.1517 20.3696 19.108ZM20.3249 19.0872C20.3037 19.0664 20.2802 19.0539 20.2483 19.0435L20.293 18.9581C20.3271 18.9686 20.3483 18.9789 20.3696 19.0019L20.3249 19.0872ZM20.0718 19.3453C20.0164 19.2912 20.0824 19.2163 20.1377 19.2599L20.3696 19.4327C20.3909 19.4534 20.3909 19.4868 20.3802 19.5076L20.3462 19.5409C20.3356 19.5617 20.2909 19.5617 20.2697 19.5409L20.0718 19.3474V19.3453ZM20.093 19.1288C20.0483 19.1184 20.0271 19.0643 20.0271 19.0435C20.0717 19.033 20.1142 19.0435 20.1377 19.0643C20.1164 19.0643 20.093 19.0976 20.093 19.1288ZM19.9611 19.5055C19.9164 19.4618 19.9718 19.3869 20.0271 19.4306L20.2143 19.57C20.2356 19.5909 20.2483 19.6137 20.2249 19.6345L20.2037 19.6679C20.193 19.6886 20.159 19.6886 20.1377 19.6679L19.9611 19.5055ZM19.9952 19.2891C19.9505 19.2558 19.9398 19.2037 19.9398 19.1809C19.9738 19.1809 20.0271 19.1913 20.0505 19.2141C20.0292 19.2245 19.9952 19.2579 19.9952 19.2891ZM19.8739 19.8281C19.8952 19.8385 19.9952 19.8822 19.9398 19.9259C19.8845 19.9592 19.8292 19.9696 19.7632 20.0341C19.7738 19.9592 19.7632 19.8947 19.7632 19.8302C19.7526 19.7657 19.8504 19.8198 19.8739 19.8302M19.9845 19.6262C20.0398 19.6595 20.0611 19.7115 20.0505 19.7449C20.0292 19.7885 19.9632 19.7885 19.9186 19.7657C19.8633 19.7324 19.8313 19.6804 19.8526 19.647C19.8738 19.6034 19.9292 19.5929 19.9845 19.6262ZM19.8186 19.3453C19.8739 19.3349 19.9186 19.3661 19.9398 19.3785C19.9186 19.389 19.9058 19.4119 19.9058 19.4431C19.8611 19.4327 19.8292 19.3682 19.8186 19.3453ZM18.9249 18.1382L18.9355 18.0195L19.1334 18.1049L19.1674 17.8884L19.2781 17.9321C19.4207 18.1049 19.5547 18.288 19.6973 18.4607C19.8079 18.5585 19.8292 18.6772 19.9738 18.6647C19.9952 18.6647 20.2164 18.6855 20.2718 18.7084C20.359 18.7521 20.4271 18.8479 20.4803 18.8811C20.5143 18.8915 20.5909 18.9353 20.6016 18.9789C20.6122 19.0227 20.5803 19.0539 20.525 19.0539C20.459 18.9789 20.359 18.9457 20.3037 18.9353C20.1378 18.9019 20.0505 18.8915 19.9398 18.8499C20.0271 18.9144 20.1057 18.9353 20.1717 19.0123C20.1164 19.0019 20.0164 18.9914 19.9632 19.0019C19.9738 19.0559 20.0079 19.1205 20.0505 19.1642C20.0164 19.1538 19.9505 19.1434 19.8952 19.1538C19.9058 19.1975 19.9164 19.262 19.9398 19.3369C19.8845 19.3036 19.8526 19.2933 19.8079 19.3036C19.7866 19.1642 19.7419 19.0872 19.6866 19.033C19.444 18.7209 19.1802 18.4399 18.927 18.1382M18.4418 17.7178C18.4865 17.6969 18.5418 17.674 18.5844 17.6636C18.761 17.5887 18.9589 17.5013 19.1568 17.3931C19.1781 17.5325 19.2334 17.6949 19.2993 17.8239L19.0781 17.7386L19.044 17.955L18.8461 17.8697L18.8248 18.0528L18.4398 17.7178H18.4418ZM16.5247 18.0091C16.7886 18.161 16.9758 18.365 17.1311 18.6127C17.2865 18.365 17.4738 18.1589 17.7376 18.0091C17.8801 18.904 18.6078 19.8427 19.1483 20.4463C19.0377 20.4795 18.7844 20.5649 18.5865 20.6502C18.0461 20.0674 17.5843 19.1621 17.3843 18.7417C17.429 19.3244 17.8142 20.4774 17.9908 20.9083C17.7035 21.0706 17.4609 21.2745 17.1311 21.5451C16.8013 21.287 16.5588 21.0706 16.2715 20.9083C16.4482 20.4774 16.8333 19.3224 16.8779 18.7417C16.6907 19.1621 16.2268 20.0674 15.6758 20.6502C15.4778 20.5649 15.2247 20.4774 15.114 20.4463C15.6544 19.8323 16.3715 18.904 16.5247 18.0091ZM15.2013 17.955L15.1672 17.7386L14.9459 17.8239C15.0118 17.6949 15.0672 17.5325 15.0885 17.3931C15.2863 17.5013 15.4843 17.5866 15.6608 17.6636C15.7055 17.6844 15.7608 17.7074 15.8034 17.7178L15.4183 18.0528L15.397 17.8697L15.1991 17.955H15.2013ZM13.8011 11.2701V10.5375C13.8777 10.6562 13.9671 10.7748 14.0778 10.8726C14.0012 10.9704 13.9224 11.1307 13.8011 11.2722M13.9777 11.3055V12.0609L13.8011 11.909V11.4991L13.9777 11.3055ZM14.2309 12.1567V16.3192C14.2309 16.417 14.2416 16.5023 14.2757 16.5897C14.2757 16.8707 14.2757 17.1829 14.1203 17.5595C14.1097 17.5263 14.099 17.5054 14.0863 17.4743C14.0309 17.5075 13.9863 17.5492 13.9437 17.5929C13.9331 17.495 13.899 17.3993 13.8564 17.2807C13.8352 17.2911 13.8224 17.3015 13.8117 17.3244V12.1068L14.0437 12.4085L14.2309 12.1609V12.1567ZM14.0437 17.6116C14.1309 17.9342 14.0224 18.1944 13.7798 18.3774C13.7139 18.0654 13.8671 17.7844 14.0437 17.6116ZM14.4523 16.9103C14.5948 17.0829 14.7948 17.2328 15.014 17.3514L15.0033 17.3952C14.9693 17.6116 14.8608 17.8051 14.7501 17.9987L14.8502 17.9779C14.7501 18.1069 14.6076 18.2901 14.4969 18.4191C14.4629 18.4524 14.4309 18.4836 14.4097 18.5274C14.399 18.5482 14.3756 18.571 14.3543 18.5814C14.2671 18.6355 14.0905 18.6023 13.9798 18.6564C13.9692 18.6564 13.9586 18.6668 13.9458 18.6668L13.9245 18.6772V18.6668L13.8586 18.5274H13.9458C13.9458 18.5343 13.9494 18.5412 13.9565 18.5482C13.9778 18.6023 14.0437 18.6231 14.099 18.6023C14.1543 18.5689 14.1756 18.5044 14.1438 18.4504C14.1224 18.3962 14.0565 18.3754 14.0012 18.3962C13.9798 18.4066 13.9671 18.4295 13.9565 18.4399H13.8799C14.0671 18.2776 14.1778 18.0736 14.1778 17.803C14.3438 17.5221 14.4416 17.2308 14.4543 16.9082M14.0033 18.4504C14.0373 18.4399 14.0693 18.4504 14.0905 18.4836C14.1012 18.5169 14.0905 18.5482 14.0565 18.5689C14.0224 18.5898 13.9905 18.5689 13.9692 18.5356C13.9586 18.4919 13.9692 18.4607 14.0033 18.4504ZM14.3672 19.4534C14.3672 19.4202 14.3458 19.3994 14.3331 19.389C14.3543 19.3785 14.3884 19.3453 14.4543 19.3557C14.4331 19.3764 14.4097 19.4306 14.3672 19.4534ZM14.2799 19.6158L14.3246 19.5721L14.3458 19.6158C14.4118 19.724 14.5012 19.7885 14.5991 19.8323C14.5544 19.9072 14.5438 19.9717 14.5438 20.0695C14.4671 20.0154 14.4012 19.9842 14.3118 19.9717C14.3331 19.8427 14.3224 19.7344 14.2905 19.6366L14.2799 19.6158ZM14.2692 19.3036C14.2692 19.2704 14.2353 19.2391 14.2139 19.2287C14.2353 19.2079 14.2905 19.1954 14.3246 19.1954C14.3246 19.2163 14.3139 19.2704 14.2692 19.3036ZM14.048 19.5742L14.2352 19.4348C14.2905 19.391 14.3458 19.468 14.3012 19.5097L14.1246 19.672C14.1033 19.6929 14.0692 19.6824 14.0586 19.672L14.0373 19.6388C14.016 19.6283 14.0267 19.595 14.048 19.5742ZM13.8926 19.4452L14.1246 19.2724C14.1799 19.2287 14.2458 19.3057 14.1905 19.3578L13.9692 19.5513C13.9479 19.5721 13.9139 19.5617 13.8926 19.5513L13.8586 19.518C13.8586 19.4972 13.8692 19.4639 13.8926 19.4431M14.1799 19.1309C14.1799 19.0976 14.1586 19.0664 14.1352 19.0559C14.1564 19.0456 14.2012 19.0351 14.2458 19.0351C14.2353 19.0684 14.2246 19.1205 14.1799 19.1329M13.7842 19.2849C13.8607 19.2204 13.9501 19.1663 14.0373 19.1121C14.1033 19.0684 14.1586 19.1454 14.1033 19.187L13.8713 19.391C13.8501 19.4119 13.816 19.4014 13.8054 19.391L13.7842 19.3578C13.7628 19.3369 13.7628 19.3036 13.7842 19.2828M13.9927 19.0456L13.9586 18.981L14.0139 18.9706L14.0352 19.0144L13.9905 19.0476L13.9927 19.0456ZM13.7607 19.2391C13.7713 19.1538 13.8479 19.0768 13.9161 19.0123C13.9267 19.033 13.9373 19.0456 13.9373 19.0664C13.9033 19.0997 13.8054 19.1954 13.7607 19.2391ZM13.716 19.11C13.6948 19.1642 13.6713 19.2391 13.6713 19.2933C13.6373 19.2495 13.616 19.1746 13.6267 19.11C13.6267 19.0893 13.6373 19.0768 13.6479 19.0768C13.6692 19.0872 13.6927 19.11 13.7139 19.11M14.0012 18.7104C14.0458 18.6897 14.265 18.6668 14.299 18.6668C14.4416 18.6772 14.4757 18.5689 14.5757 18.4629C14.7183 18.2901 14.8523 18.1069 14.9948 17.9342L15.1054 17.8905L15.1395 18.1069L15.3481 18.0216L15.3587 18.1403C15.1054 18.442 14.8416 18.7229 14.5991 19.0351C14.5544 19.0893 14.5118 19.1642 14.4777 19.3057C14.4224 19.2849 14.4012 19.3057 14.3458 19.339C14.3672 19.2641 14.3905 19.1996 14.3905 19.1559C14.3352 19.1559 14.2692 19.1559 14.2352 19.1663C14.2799 19.1121 14.3118 19.058 14.3224 19.0039C14.2565 18.9935 14.1671 19.0039 14.1139 19.0144C14.1693 18.9394 14.2458 18.9061 14.3458 18.852C14.2352 18.8853 14.148 18.9061 13.982 18.9374C13.9267 18.9478 13.8394 18.981 13.7607 19.0559C13.7053 19.0559 13.6841 19.0123 13.6841 18.981C13.6947 18.9373 13.7607 18.8957 13.8054 18.8832C13.8501 18.8499 13.9161 18.7438 14.0033 18.7104M13.7394 18.5274C13.7607 18.5169 13.7735 18.5169 13.7948 18.5065L13.8947 18.7001L13.8501 18.7438L13.7394 18.5274ZM13.6288 18.0736C13.5734 17.9217 13.6182 17.5887 13.816 17.4368C13.9032 17.6844 13.782 17.9654 13.6288 18.0736ZM12.9904 11.5719V11.9069L12.7585 12.1005V11.2494L12.9904 11.5719ZM12.7585 10.9788C12.7926 10.8705 12.8585 10.7082 12.9798 10.5375V11.2597L12.7585 10.9788ZM12.4393 16.2401C12.4393 16.2296 12.4288 16.2297 12.4288 16.2193L12.4734 16.1444L12.7373 16.6626C12.6373 16.5877 12.5393 16.5335 12.4181 16.5231V16.3608C12.4521 16.3274 12.4521 16.2859 12.4393 16.2422M12.7159 16.5231L12.5607 16.2109C12.5266 16.136 12.484 16.0923 12.484 16.007C12.55 16.0611 12.5713 16.1152 12.6053 16.1901L12.7606 16.5023C12.8266 16.6209 12.8713 16.7063 12.9032 16.8374C12.8266 16.7291 12.7819 16.6334 12.7159 16.5252M12.6607 15.1245C12.7819 15.4471 12.6947 15.6969 12.5053 15.8364C12.4053 15.5241 12.4841 15.264 12.6607 15.1245ZM12.5181 15.1245C12.4968 15.0496 12.4734 14.9622 12.4308 14.8664V12.1505L12.7181 12.4731L12.9947 12.1505V16.2359C12.9288 16.3441 12.8841 16.4732 12.8947 16.6126L12.6308 16.0944L12.7181 16.1048C12.7181 16.1117 12.7217 16.1187 12.7288 16.1256C12.75 16.1798 12.8159 16.2005 12.8713 16.1798C12.9266 16.1589 12.9479 16.0819 12.916 16.0278C12.8947 15.9737 12.8288 15.9529 12.7734 15.9737C12.7522 15.9841 12.7393 16.007 12.7288 16.0174L12.5862 16.007L12.5649 15.9529C12.7968 15.7489 12.8841 15.4242 12.7075 14.9393C12.6308 14.9934 12.5649 15.0475 12.5203 15.1224M12.7734 16.007C12.8074 15.9965 12.8394 16.007 12.8607 16.0403C12.8713 16.0736 12.8607 16.1049 12.8266 16.1256C12.7926 16.136 12.7607 16.1256 12.7393 16.0923C12.7288 16.059 12.75 16.0174 12.7734 16.007ZM13.1479 16.2005C13.2352 16.4378 13.1373 16.7063 13.0053 16.8041C12.9393 16.6647 12.9713 16.3295 13.1479 16.2005ZM13.3457 16.3733C13.4457 16.6959 13.3458 16.9456 13.1373 17.1059C13.0713 16.7937 13.2032 16.5335 13.3457 16.3733ZM13.3904 17.9696C13.3138 17.905 13.2352 17.8614 13.1479 17.8405V17.4743L13.3904 17.9696ZM13.1479 17.3015C13.2138 17.3764 13.2585 17.4534 13.3033 17.5388L13.4032 17.7323C13.4692 17.8509 13.5245 17.9591 13.5586 18.0986C13.4713 17.9904 13.416 17.8821 13.3607 17.7635L13.2607 17.5595C13.2053 17.4846 13.1734 17.3973 13.15 17.3015M13.4926 18.1527C13.3053 18.2068 13.0075 18.1319 12.8649 17.9154C13.1075 17.8509 13.4053 18.0237 13.4926 18.1527ZM12.9968 17.5492C12.9628 17.5595 12.9309 17.5492 12.9096 17.5159C12.8989 17.4825 12.9096 17.4514 12.9436 17.4305C12.9777 17.4201 13.0096 17.4305 13.0308 17.4639C13.0415 17.4971 13.0203 17.5388 12.9968 17.5492ZM13.1394 11.5864L13.3479 11.3055V12.1026L13.1394 11.9299V11.5844V11.5864ZM13.1181 11.2847L13.1628 10.4751C13.1968 10.5938 13.2734 10.8102 13.3607 10.9496L13.1181 11.2847ZM13.4053 12.471L13.6586 12.1693V17.495C13.582 17.6137 13.5373 17.7427 13.5373 17.905L13.2394 17.3015L13.3267 17.3119C13.3267 17.3189 13.3302 17.3258 13.3373 17.3327C13.3586 17.3869 13.4245 17.4077 13.4798 17.3869C13.5352 17.366 13.5564 17.289 13.5352 17.2349C13.5139 17.1808 13.4352 17.16 13.3926 17.1808C13.3713 17.1912 13.3586 17.2016 13.3479 17.2245L13.2053 17.2141C13.4693 16.9976 13.5798 16.6854 13.4139 16.2214C13.3692 16.2546 13.3267 16.2963 13.282 16.3295C13.2713 16.2318 13.2372 16.136 13.1947 16.0174L13.1607 16.0507V12.1693C13.2267 12.2337 13.316 12.3961 13.4032 12.471M13.3926 17.2141C13.4267 17.2037 13.4586 17.2141 13.4798 17.2474C13.4905 17.2807 13.4798 17.3119 13.4458 17.3327C13.4118 17.3431 13.3798 17.3327 13.3586 17.2994C13.3479 17.2661 13.3586 17.2349 13.3926 17.2141ZM13.4479 12.1151V11.2847L13.6564 11.5011V11.9424L13.4479 12.1151ZM13.4479 10.9725C13.5245 10.8872 13.6138 10.7686 13.6798 10.6708V11.2847L13.4479 10.9725ZM13.6458 18.7022C13.6564 18.7355 13.6458 18.7667 13.6117 18.7874C13.5777 18.7979 13.5458 18.7875 13.5245 18.7542C13.5139 18.7209 13.5245 18.6897 13.5586 18.6689C13.5926 18.6584 13.6245 18.6689 13.6458 18.7022ZM13.1394 18.5294C13.1607 18.5399 13.2394 18.5627 13.2713 18.5627C13.2267 18.6064 13.2053 18.648 13.1394 18.6918V18.5294ZM12.8628 18.1944C13.1053 18.161 13.4245 18.2048 13.6352 18.4524C13.3586 18.5274 13.0734 18.4524 12.8628 18.1944ZM12.4223 17.1704C12.5989 17.289 12.7968 17.3223 12.9841 17.289V17.3639L12.9627 17.3973C12.9415 17.3973 12.9181 17.3972 12.8968 17.4076C12.8415 17.4284 12.8203 17.5054 12.8415 17.5595C12.8628 17.6137 12.9288 17.6344 12.9841 17.6137V17.8301C12.8841 17.8301 12.7862 17.8405 12.6862 17.8634C12.7415 17.9717 12.8074 18.0569 12.8841 18.1215C12.8288 18.1319 12.7628 18.1424 12.6968 18.1652C12.7841 18.2943 12.8841 18.3921 12.9841 18.4565V18.673C12.9841 18.9207 12.7755 19.1684 12.4223 19.4285V17.1745V17.1704ZM12.2904 16.8998C12.5117 16.879 12.7968 16.9435 13.0075 17.1808C12.7437 17.2453 12.4904 17.1704 12.2904 16.8998ZM12.2691 16.6293C12.4777 16.5751 12.7649 16.7479 12.8415 16.8769C12.6862 16.9206 12.4117 16.8436 12.2691 16.6293ZM12.3798 16.3379C12.3458 16.3483 12.3138 16.3379 12.2925 16.3046C12.2819 16.2713 12.2925 16.2401 12.3266 16.2193C12.3606 16.2089 12.3926 16.2193 12.4138 16.2525C12.4244 16.2859 12.4138 16.3171 12.3798 16.3379ZM12.3585 15.8967C12.1372 15.9716 11.884 15.8759 11.6861 15.5949C11.9074 15.5512 12.1606 15.6386 12.3585 15.8967ZM12.2032 15.5845C12.0372 15.6178 11.8733 15.5408 11.7521 15.3264C11.918 15.3056 12.1159 15.4554 12.2032 15.5845ZM11.9393 14.7229C11.8393 14.4524 11.8947 14.2692 12.0159 14.1505C12.1159 14.4211 12.0606 14.6043 11.9393 14.7229ZM12.2372 14.9705V15.316L12.0159 14.8852L12.1032 14.8956C12.1032 14.9025 12.1068 14.9095 12.1138 14.9164C12.1351 14.9498 12.1904 14.9705 12.2351 14.9705M12.2351 14.9164C12.2011 14.9269 12.1691 14.9164 12.1478 14.8831C12.1372 14.8498 12.1478 14.8186 12.1818 14.7978C12.2159 14.7874 12.2478 14.7978 12.2691 14.8311C12.2798 14.8644 12.2691 14.906 12.2351 14.9164ZM12.2904 15.5845C12.2138 15.4867 12.1691 15.4014 12.1138 15.2931L12.0032 15.0767C11.9584 14.9914 11.9266 14.9373 11.9159 14.8498C11.9819 14.9144 12.0159 14.9789 12.0478 15.0538L12.1585 15.2702C12.2138 15.3889 12.2585 15.4638 12.2904 15.5824M12.4117 15.0101C12.5117 15.2265 12.467 15.4097 12.3458 15.5158C12.2904 15.3639 12.2904 15.1162 12.4117 15.0101ZM12.4223 11.5178L12.6543 11.2056V12.1005L12.4223 11.9069V11.5199V11.5178ZM12.5223 10.5146C12.5329 10.6229 12.5777 10.7727 12.6648 10.9892L12.433 11.1827C12.4223 10.8914 12.4436 10.6541 12.5203 10.5146M14.2395 10.1484C14.1842 10.3419 14.1735 10.6333 14.1948 10.806C13.9182 10.5896 13.8862 10.4501 13.865 10.2337C13.865 10.2233 13.8756 10.1588 13.8543 10.1484C13.8331 10.1484 13.799 10.2129 13.7777 10.2774C13.7117 10.4939 13.5692 10.6644 13.4586 10.7623C13.282 10.4501 13.25 10.2129 13.3033 9.98603C13.3033 9.97561 13.3138 9.9527 13.3138 9.94236C13.3138 9.93186 13.3032 9.89861 13.2798 9.89861C13.2564 9.89861 13.2032 9.97353 13.2032 9.99645C13.0479 10.2337 12.8288 10.5146 12.7075 10.7727C12.6415 10.5999 12.6074 10.3856 12.6074 10.319C12.7841 10.0173 13.0032 9.68211 13.3564 9.53228C13.7202 9.76961 14.0501 9.98603 14.2373 10.1463M14.5906 11.6344H14.116L14.1501 11.6884C14.1948 11.7634 14.2161 11.8279 14.2161 11.9049L14.0842 12.0235V11.1827L14.1842 10.9663C14.2948 11.2139 14.448 11.472 14.5927 11.6344M14.9459 11.2348C14.7906 11.2889 14.6821 11.3867 14.6161 11.4824C14.5161 11.3304 14.4501 11.1806 14.4395 11.0724C14.6267 11.0933 14.8352 11.1577 14.9459 11.2348ZM14.9799 11.3429C14.9906 11.4074 15.0565 11.5158 15.1565 11.6239H14.6927C14.7692 11.5053 14.8906 11.4074 14.9799 11.3429ZM15.365 11.4179C15.2991 11.4387 15.2438 11.472 15.2098 11.5261C15.1544 11.4616 15.1097 11.3742 15.0991 11.2889L15.3629 11.4179H15.365ZM15.7843 11.5802C15.7502 11.601 15.7289 11.6135 15.697 11.6344H15.2672C15.3119 11.5699 15.3885 11.5053 15.4651 11.472C15.5417 11.5053 15.6076 11.5365 15.7843 11.5802ZM15.9928 8.99328C16.1247 9.0037 16.3567 9.05778 16.4886 9.1327C16.4332 9.14311 16.3885 9.18686 16.3673 9.24095C16.2566 9.1327 16.0693 9.02453 15.9928 8.99328ZM15.9055 8.84136C16.0715 8.78728 16.2693 8.94961 16.3567 9.02453C16.2247 8.9912 16.0034 8.9267 15.9055 8.98078V8.84136ZM15.6842 9.4012C15.7055 9.38036 15.7289 9.31586 15.7396 9.28253V8.90586C15.7736 8.88503 15.8162 8.8622 15.8502 8.85178V9.28253C15.8502 9.31586 15.8715 9.36795 15.8949 9.4012C15.8608 9.43453 15.8183 9.4657 15.7843 9.51986C15.7736 9.47611 15.7289 9.43453 15.6842 9.4012ZM15.8502 8.28978V8.62486C15.8055 8.6582 15.763 8.7102 15.7396 8.76436V8.40845V8.27945H15.5417C15.497 8.27945 15.3991 8.28986 15.3544 8.33353C15.3438 8.3002 15.3332 8.26903 15.3332 8.22528C15.3332 8.19203 15.3332 8.15036 15.3544 8.11711C15.3991 8.16078 15.497 8.1712 15.5417 8.1712H15.7396V7.9672C15.7396 7.92353 15.7289 7.81528 15.6842 7.7737C15.7182 7.76328 15.7502 7.75286 15.7948 7.75286C15.8289 7.75286 15.8715 7.75286 15.9055 7.7737C15.8608 7.81736 15.8502 7.92561 15.8502 7.9672V8.00053V8.16286H16.0481C16.0928 8.16286 16.1907 8.15245 16.2353 8.10878C16.246 8.14203 16.2566 8.17328 16.2566 8.21695C16.2566 8.25028 16.2566 8.29186 16.2353 8.3252C16.1907 8.28153 16.0928 8.27111 16.0481 8.27111L15.8502 8.29195V8.28978ZM16.6226 9.0557C16.48 8.95786 16.2268 8.76436 15.9843 8.74353C15.9502 8.74353 15.8736 8.76436 15.8289 8.7872C15.8629 8.74353 15.8949 8.68945 15.9503 8.6582C16.0162 8.60411 16.0822 8.5937 16.1821 8.62486C16.2693 8.6457 16.3587 8.6582 16.4247 8.69986C16.4247 8.81845 16.5566 8.9267 16.6226 9.0557ZM18.2546 11.5469C18.078 11.4929 17.8142 11.3097 17.7694 11.0724C17.7694 10.9538 17.7482 10.5667 17.7354 10.448C17.7354 10.3294 17.7248 10.2316 17.7248 10.113C17.7035 10.0589 17.6801 10.0276 17.6694 10.0151C17.6482 10.0484 17.6248 10.0797 17.6142 10.113C17.6142 10.2649 17.6482 10.7499 17.6482 11.0516C17.6482 11.2993 17.7248 11.3867 17.7801 11.4929C17.6142 11.395 17.4269 11.2764 17.4269 11.0287V10.1004C17.4163 10.0568 17.3928 10.0255 17.3716 10.0027C17.3375 10.0359 17.3269 10.0672 17.3163 10.1004V11.1349C17.3163 11.2534 17.2716 11.3929 17.1843 11.4574C17.1183 11.3929 17.0737 11.2847 17.0631 11.1349C17.0524 10.7894 17.0737 10.4439 17.0737 10.1004C17.0631 10.0797 17.0396 10.0255 17.0183 10.0027C16.9971 10.0234 16.9737 10.0672 16.963 10.1004V10.371C16.963 10.4689 16.9524 10.9309 16.9524 11.0287C16.9524 11.191 16.8205 11.3304 16.6332 11.4595C16.6992 11.3201 16.7333 11.2223 16.7545 11.0599C16.7992 10.7894 16.7886 10.3919 16.8098 10.1004C16.7992 10.0672 16.7886 10.0359 16.7652 10.0027C16.7438 10.0359 16.7311 10.0672 16.7204 10.1004C16.7098 10.2628 16.7098 10.4668 16.6992 10.7478C16.6545 11.2014 16.346 11.4262 16.0055 11.5449C16.1715 11.4054 16.2928 11.1681 16.4141 10.9517C16.5141 10.7581 16.5801 10.4772 16.6119 10.1317C16.6119 10.0984 16.6119 10.0568 16.6226 10.0131C16.6438 9.75503 16.6567 9.41995 16.4566 9.30128C16.4907 9.1827 16.5992 9.13895 16.6885 9.1827C16.7333 9.20345 16.8205 9.22636 16.8864 9.21595C16.6992 9.01203 16.5992 8.88086 16.5119 8.68736C16.5226 8.65403 16.6226 8.67695 16.7098 8.69778C16.7545 8.70811 16.7864 8.74145 16.8417 8.75186C16.7971 8.7852 16.7545 8.80595 16.6864 8.87045C16.7524 8.90378 16.8078 8.9787 16.9183 8.98911C17.029 8.99953 17.0737 8.9142 17.1609 8.86011C17.1268 8.81636 17.0503 8.77478 16.9737 8.74145C17.0609 8.72061 17.2056 8.65611 17.3375 8.67695C17.4376 8.6977 17.4801 8.76228 17.5695 8.80595H17.5908C17.5908 8.80595 17.6013 8.79553 17.5908 8.78511C17.5142 8.69986 17.4694 8.66653 17.3823 8.61245C17.3163 8.57911 17.1843 8.57911 17.1183 8.59161C17.0524 8.60203 16.9524 8.62486 16.8652 8.62486C16.7098 8.62486 16.6226 8.53961 16.48 8.57078C16.3928 8.3002 16.7992 8.28986 17.0864 8.34395C17.2737 8.38761 17.429 8.46253 17.495 8.50628C17.6269 8.60411 17.8482 8.7227 18.0121 8.77686C17.978 8.79761 17.9354 8.81011 17.8801 8.81011C17.9907 8.88503 18.0674 8.98286 18.1121 9.03695C18.078 9.02661 18.0248 9.02653 17.9248 9.02653C18.0014 9.13478 18.0801 9.25345 18.1014 9.30753C18.0674 9.29711 18.0142 9.2867 17.9802 9.2742C18.0354 9.44695 18.0142 9.79245 17.9354 9.9652C17.9014 10.0401 17.9142 10.1171 17.9142 10.1921C17.9354 10.7103 17.8928 11.1724 18.2568 11.5511M16.8907 8.88711C16.8907 8.93086 16.9119 8.96203 16.946 8.97245C16.8907 8.97245 16.8588 8.92878 16.8588 8.88711C16.8588 8.84553 16.9034 8.8122 16.946 8.80178C16.9119 8.8122 16.8907 8.84553 16.8907 8.88711ZM17.0013 8.88711C17.0013 8.84345 16.9801 8.8122 16.946 8.80178C17.0013 8.80178 17.046 8.83511 17.046 8.88711C17.046 8.93086 17.0013 8.97245 16.946 8.97245C16.9801 8.97245 17.0013 8.92878 17.0013 8.88711ZM16.5822 11.3554C16.5481 11.4741 16.4949 11.5594 16.4608 11.6364H16.1311C16.3183 11.5719 16.4183 11.5178 16.5822 11.3554ZM16.9907 11.3118C17.0248 11.3867 17.1013 11.549 17.1993 11.6344H16.6375C16.8247 11.5261 16.9354 11.3867 16.9907 11.3118ZM17.3993 11.3014C17.5312 11.4533 17.6631 11.5594 17.8184 11.6364H17.1907C17.2908 11.5386 17.3779 11.4533 17.3993 11.3014ZM18.2269 11.6364H17.9843C17.9397 11.5719 17.9291 11.5178 17.8971 11.4324C17.9524 11.497 18.0738 11.5719 18.2269 11.6364ZM18.8228 11.4741C18.8993 11.5178 18.9653 11.5719 19.0206 11.6364H18.5908C18.5695 11.6156 18.5355 11.6031 18.5036 11.5823C18.6802 11.5386 18.7461 11.5074 18.8228 11.4741ZM19.1759 11.2909C19.1759 11.3659 19.1206 11.4637 19.0653 11.5282C19.0206 11.4741 18.9653 11.4429 18.91 11.4199L19.1738 11.2909H19.1759ZM19.3078 11.345C19.4078 11.3992 19.5163 11.5074 19.5952 11.626H19.1312C19.2185 11.5178 19.2866 11.4221 19.3078 11.345ZM19.8483 11.0745C19.827 11.1827 19.7611 11.3325 19.6718 11.4844C19.6164 11.3867 19.4951 11.2805 19.3419 11.2368C19.4526 11.1619 19.6611 11.0974 19.8483 11.0745ZM20.0803 10.9663L20.1803 11.1827V12.0235L20.0483 11.9049C20.059 11.8299 20.0696 11.7654 20.1142 11.6884L20.1483 11.6344H19.6738C19.8398 11.472 19.9823 11.2139 20.0824 10.9663M21.691 10.3294C21.691 10.3939 21.6569 10.6104 21.591 10.7831C21.4803 10.5354 21.2484 10.2545 21.0952 10.0068C21.0846 9.99645 21.0399 9.90903 21.0186 9.90903C20.9973 9.90903 20.9846 9.94236 20.9846 9.9527C20.9846 9.96311 20.9846 9.98603 20.9953 9.99645C21.0612 10.2233 21.0165 10.4501 20.8398 10.7727C20.7292 10.6874 20.5867 10.5147 20.5207 10.2878C20.4994 10.2233 20.4653 10.1484 20.4441 10.1588C20.4228 10.1588 20.4335 10.2233 20.4335 10.2441C20.4228 10.448 20.3888 10.5896 20.1037 10.8164C20.1249 10.6437 20.1143 10.3419 20.0589 10.1588C20.2463 9.99645 20.576 9.78203 20.9527 9.5552C21.2953 9.6947 21.5144 10.0297 21.691 10.3315M21.8569 11.1827L21.6251 10.9892C21.7017 10.7624 21.757 10.6229 21.7676 10.5146C21.8442 10.6541 21.8548 10.8914 21.8548 11.1827M21.8548 11.9049L21.6229 12.0984V11.2035L21.8548 11.5157V11.9029V11.9049ZM21.8548 12.573V15.8821L21.6463 16.2817C21.6123 16.3359 21.5462 16.3462 21.5144 16.4004C21.4931 16.4336 21.4932 16.4649 21.5037 16.4981C21.4484 16.5086 21.4037 16.5314 21.3825 16.5835C21.3612 16.6272 21.3612 16.6688 21.3718 16.7125C21.3377 16.7229 21.3058 16.7458 21.2952 16.777V12.1297L21.5718 12.4523L21.8591 12.1297V12.5709L21.8548 12.573ZM22.1634 15.5262C22.1974 15.4617 22.2187 15.3972 22.2081 15.3534C22.2187 15.3327 22.2633 15.343 22.308 15.3639C22.3528 15.3847 22.3847 15.418 22.374 15.4388C22.34 15.4492 22.2867 15.5034 22.2528 15.5679L21.8229 16.3774C21.8123 16.3983 21.8123 16.4108 21.8123 16.4315C21.7783 16.3983 21.7463 16.3774 21.691 16.367C21.7017 16.3566 21.725 16.3462 21.7357 16.3233L22.1655 15.5262H22.1634ZM19.8037 11.8716V16.3025C19.8037 16.367 19.793 16.4419 19.7696 16.5064C19.6143 16.9706 18.9206 17.2619 18.5014 17.4347C18.2248 17.5533 17.9397 17.6616 17.6737 17.7906C17.4652 17.8988 17.2546 18.007 17.1439 18.2214C17.0226 18.0174 16.8248 17.8988 16.6141 17.7906C16.3503 17.6511 16.063 17.5429 15.7863 17.4347C15.3673 17.2619 14.6735 16.9602 14.5182 16.5064C14.4969 16.4419 14.4842 16.3774 14.4842 16.3025V11.8716H19.7972H19.8037ZM17.8078 12.8644L17.5205 12.702L17.6078 12.4003L17.2993 12.4855L17.1439 12.2046L16.9779 12.4855L16.6694 12.4003L16.7567 12.7124L16.48 12.8644L16.7673 13.0267L16.68 13.3284L16.9886 13.2431L17.1439 13.5241L17.3098 13.2431L17.6183 13.3284L17.5312 13.0163L17.8078 12.8644ZM17.412 12.7457L17.6206 12.8644L17.4227 12.9726L17.4886 13.1994L17.2673 13.1349L17.146 13.3389L17.0353 13.1453L16.8035 13.2099L16.8694 12.9934L16.6609 12.8748L16.8588 12.7665L16.7928 12.5397L17.0141 12.6042L17.1353 12.4003L17.246 12.5938L17.478 12.5293L17.412 12.7457ZM15.2842 14.1797C15.0629 14.4065 14.7672 14.5793 14.4799 14.7083C14.7672 14.8269 15.065 15.0101 15.2842 15.2369C15.5055 15.0101 15.78 14.8374 16.0672 14.7083C15.78 14.5793 15.5055 14.4065 15.2842 14.1797ZM15.2842 14.3732H15.2948C15.4502 14.5127 15.614 14.6001 15.7906 14.6958L15.8012 14.7062L15.7906 14.7166C15.614 14.8144 15.4374 14.8998 15.2948 15.0392L15.2842 15.0496L15.2736 15.0392C15.1182 14.8998 14.9544 14.8124 14.7778 14.7166L14.7672 14.7062L14.7778 14.6958C14.965 14.5979 15.131 14.5127 15.2842 14.3732ZM15.4267 15.6885C15.2395 15.6885 15.1076 15.8509 15.1629 16.0112C15.031 15.9134 14.8331 15.9779 14.7778 16.1631C14.7225 16.3483 14.8331 16.5086 15.0097 16.5086C14.8672 16.6064 14.8778 16.8104 15.031 16.9185C15.1843 17.0268 15.3842 16.9727 15.4395 16.8104C15.4948 16.9727 15.6821 17.0268 15.8481 16.9185C16.0034 16.8104 16.014 16.6064 15.8693 16.5086C16.0353 16.5086 16.1566 16.3462 16.1013 16.1631C16.0459 15.9799 15.8481 15.9154 15.7162 16.0112C15.7502 15.8488 15.6289 15.6885 15.4289 15.6885M15.7055 16.4315C15.7162 16.3879 15.7162 16.3338 15.6948 16.2921C15.6842 16.2484 15.6502 16.2068 15.6183 16.1734C15.7289 16.0112 15.9055 15.9904 15.9822 16.2068C16.0481 16.4004 15.8949 16.4981 15.7055 16.4336M15.4629 16.6376C15.5076 16.6376 15.5629 16.6168 15.5948 16.5835C15.6395 16.5502 15.6715 16.5189 15.6821 16.4753C15.8693 16.5294 15.946 16.6917 15.7588 16.8208C15.5821 16.9498 15.4502 16.8311 15.4608 16.6376M15.2289 16.4336C15.1948 16.3254 15.2502 16.2068 15.3608 16.1631C15.4608 16.1298 15.5693 16.1734 15.6247 16.2713C15.6247 16.2817 15.6353 16.2921 15.6353 16.3046C15.6693 16.4129 15.614 16.5314 15.5033 16.5751C15.3821 16.6084 15.2608 16.5419 15.2267 16.4357M15.1714 16.4794C15.1927 16.5231 15.2268 16.5648 15.2587 16.5877C15.3033 16.6209 15.3459 16.6314 15.3906 16.6418C15.4012 16.8354 15.2587 16.9539 15.0821 16.8249C14.9161 16.6959 14.9821 16.5335 15.1693 16.4794M15.2459 16.1673C15.2118 16.2005 15.1799 16.2422 15.1693 16.2859C15.1587 16.3399 15.148 16.3837 15.1587 16.4253C14.9714 16.4899 14.8161 16.4044 14.8821 16.188C14.9587 15.9841 15.1353 16.0049 15.2459 16.1673ZM15.4225 15.8114C15.6438 15.8114 15.6863 15.9841 15.5651 16.1339C15.5204 16.1131 15.4778 16.0902 15.4225 16.0902C15.3672 16.0902 15.3225 16.1006 15.2799 16.1339C15.1587 15.982 15.2033 15.8114 15.4225 15.8114ZM16.3715 15.316L16.1289 15.5533L16.3715 15.7905L16.6141 15.5533L16.3715 15.316ZM16.2608 15.5533L16.3715 15.445L16.4822 15.5533L16.3715 15.6615L16.2608 15.5533ZM16.5694 15.8446C16.4268 15.8446 16.2822 15.8343 16.1396 15.8239C16.2056 16.1152 16.2822 16.4066 16.3481 16.6979C16.3587 16.7624 16.3822 16.8269 16.3693 16.9019C16.5013 16.8478 16.6333 16.6647 16.6119 16.4482L16.5673 15.8446H16.5694ZM16.5247 16.4586C16.5353 16.5335 16.5141 16.6521 16.4588 16.7291C16.4588 16.7396 16.4482 16.7396 16.4375 16.7396C16.4268 16.7396 16.4268 16.7291 16.4268 16.7291C16.4268 16.6959 16.4162 16.6542 16.4055 16.6105C16.3608 16.3837 16.2949 16.1464 16.2396 15.9195C16.3162 15.9195 16.3949 15.93 16.4715 15.93L16.5268 16.4586H16.5247ZM17.9354 16.6959C18.0014 16.4044 18.078 16.1131 18.144 15.8218C18.0014 15.8218 17.8567 15.8321 17.7142 15.8425L17.6694 16.4565C17.6482 16.6729 17.7801 16.8436 17.912 16.9103C17.9014 16.8249 17.912 16.7584 17.9333 16.6938M18.0206 15.9175C17.9653 16.1339 17.9099 16.3816 17.8546 16.6084C17.844 16.6521 17.844 16.6938 17.8333 16.7271C17.8333 16.7375 17.8227 16.7375 17.8227 16.7375C17.8156 16.7375 17.8085 16.734 17.8013 16.7271C17.7461 16.6521 17.7354 16.5439 17.7354 16.4565L17.7801 15.9175H18.0227M17.9014 15.7884L18.144 15.5512L17.9014 15.3139L17.6588 15.5512L17.9014 15.7884ZM18.0227 15.5512L17.912 15.6594L17.8013 15.5512L17.912 15.4429L18.0227 15.5512ZM18.2992 16.0798C18.1014 16.4565 18.2993 16.8998 18.8717 17.0934C18.5738 16.5002 18.8717 16.0049 19.4441 16.0257C19.1567 15.7551 18.5291 15.6386 18.2972 16.0798M18.4078 16.1776C18.5291 15.9508 18.7929 15.8114 19.1674 15.9612C18.9589 16.0257 18.8036 16.1547 18.7163 16.3274C18.6398 16.5002 18.6291 16.7146 18.6823 16.9206C18.3737 16.7042 18.2865 16.392 18.4057 16.1776M19.0015 15.239C19.2228 15.0122 19.5185 14.8394 19.8057 14.7104C19.5185 14.5814 19.2206 14.4086 19.0015 14.1818C18.7802 14.4086 18.5057 14.5814 18.2184 14.7104C18.4951 14.829 18.7695 15.0122 19.0015 15.239ZM19.0015 15.0454H18.9908C18.8355 14.906 18.6717 14.8186 18.495 14.7229L18.4844 14.7124L18.495 14.702C18.6717 14.6043 18.8483 14.5189 18.9908 14.3794L19.0015 14.369L19.0121 14.3794C19.1674 14.5189 19.3313 14.6064 19.5079 14.702L19.5185 14.7124L19.5079 14.7229C19.3207 14.8207 19.1547 14.8956 19.0015 15.0454ZM18.3844 15.0454L18.2077 14.7104L18.1525 14.6022C18.9249 14.2254 19.3419 13.4388 18.8589 12.7374C18.6163 12.3815 18.3077 12.2088 17.9333 12.0152C18.0546 12.1879 18.1865 12.371 18.2972 12.5543C18.5844 13.0079 18.627 13.547 18.0993 13.9029C17.9568 14.0007 17.8567 13.9362 17.7248 14.1069C17.6694 14.1714 17.5588 14.1505 17.5163 14.086C17.4609 14.0007 17.329 14.0007 17.263 14.0652C17.2417 14.086 17.1631 14.1505 17.1311 14.1505C17.0992 14.1505 17.0205 14.086 16.9992 14.0652C16.9332 14.0007 16.8013 14.0007 16.746 14.086C16.7013 14.1505 16.5907 14.1714 16.5374 14.1069C16.4055 13.9341 16.3056 13.9986 16.163 13.9029C15.6225 13.547 15.6778 13.0079 15.9651 12.5543C16.0864 12.371 16.2077 12.1984 16.3289 12.0152C15.9651 12.2088 15.6459 12.3815 15.4033 12.7374C14.9182 13.4492 15.348 14.2254 16.1098 14.6022L16.0544 14.7104L15.8778 15.0454L15.9991 15.0663C16.363 15.1308 16.6822 15.3369 16.6822 15.7239C16.6928 16.0257 16.7034 16.3379 16.7034 16.6397C16.7034 16.7375 16.6694 16.802 16.5928 16.8665C16.4928 16.9519 16.3949 17.0289 16.2949 17.1142C16.2077 17.1787 16.2183 17.3182 16.2503 17.4055C16.2843 17.4804 16.3822 17.4804 16.4588 17.5034C16.5694 17.5367 16.6567 17.5887 16.7353 17.6553C16.8353 17.7406 16.9992 17.7844 17.1205 17.7844C17.2524 17.7844 17.4077 17.7406 17.5056 17.6553C17.5822 17.5804 17.6823 17.5263 17.7823 17.5034C17.8482 17.4825 17.9482 17.4825 17.9908 17.4055C18.0354 17.3202 18.0354 17.1787 17.9461 17.1142C17.8461 17.0289 17.7482 16.9519 17.6482 16.8665C17.5716 16.802 17.5375 16.7375 17.5375 16.6397C17.5482 16.3379 17.5588 16.0257 17.5588 15.7239C17.5695 15.3244 17.878 15.1308 18.2418 15.0663L18.3844 15.0454ZM18.2418 14.9705C17.8333 15.0454 17.4928 15.2827 17.4822 15.726C17.4716 16.0278 17.4609 16.3399 17.4609 16.6418C17.4609 16.7708 17.5056 16.8582 17.6035 16.9435C17.7035 17.0289 17.8013 17.1059 17.912 17.1912C17.9568 17.2349 17.9461 17.3202 17.9227 17.3744C17.912 17.3952 17.812 17.4076 17.7801 17.418C17.6588 17.4514 17.5588 17.4929 17.4609 17.5804C17.3843 17.6449 17.2397 17.6886 17.1417 17.6886C17.0312 17.6886 16.8993 17.6449 16.8226 17.5804C16.7226 17.495 16.6248 17.4514 16.5034 17.418C16.4822 17.4076 16.3715 17.3972 16.3608 17.3744C16.3396 17.3306 16.3268 17.2349 16.3715 17.1912C16.4715 17.1059 16.5801 17.0289 16.68 16.9435C16.78 16.8582 16.8226 16.7708 16.8226 16.6418C16.8119 16.3399 16.8013 16.0278 16.8013 15.726C16.7907 15.2848 16.4482 15.0475 16.0417 14.9705L16.2503 14.5605H16.2396C15.8098 14.3774 15.4013 14.0111 15.3246 13.5262C15.2799 13.2348 15.3587 12.9539 15.5332 12.7165C15.6651 12.5334 15.8629 12.3294 16.063 12.2213C16.0736 12.2109 16.097 12.2316 16.0843 12.242C15.8863 12.5001 15.6651 12.8144 15.6438 13.1474C15.6225 13.4929 15.831 13.7614 16.1077 13.9674C16.1523 14.0007 16.1843 14.0214 16.2396 14.0319C16.2736 14.0423 16.3056 14.0423 16.3396 14.0527C16.3949 14.0631 16.4268 14.0964 16.4608 14.138C16.5481 14.2567 16.7482 14.2234 16.8248 14.1048C16.846 14.0714 16.9119 14.0714 16.9354 14.1048C16.9907 14.1484 17.0567 14.2234 17.1332 14.2234C17.2098 14.2234 17.2758 14.1589 17.3312 14.1048C17.3524 14.0839 17.4184 14.0714 17.4418 14.1048C17.5184 14.2234 17.7184 14.2442 17.8056 14.138C17.8397 14.0944 17.8716 14.0631 17.9269 14.0527C17.961 14.0423 17.9929 14.0423 18.0269 14.0319C18.0716 14.0214 18.1142 13.9986 18.1588 13.9674C18.4228 13.7634 18.6333 13.5033 18.6227 13.1474C18.6121 12.8998 18.4802 12.652 18.3355 12.446C18.2908 12.3711 18.2355 12.3066 18.1802 12.242C18.1695 12.2316 18.1908 12.2088 18.2014 12.2213C18.3993 12.3294 18.5972 12.5334 18.7313 12.7165C18.9078 12.9539 18.9844 13.2348 18.9398 13.5262C18.8632 14.0007 18.4653 14.3669 18.0248 14.5605H18.0142L18.2461 14.9705H18.2418ZM17.4269 17.2016C17.3823 17.2016 17.3397 17.2453 17.3397 17.2869C17.3397 17.3285 17.3843 17.3723 17.4269 17.3723C17.4823 17.3723 17.7354 17.3285 17.7354 17.264C17.7461 17.1995 17.4823 17.1995 17.4269 17.1995M16.9312 17.2849C16.9312 17.2412 16.8864 17.1995 16.8439 17.1995C16.7886 17.1995 16.5353 17.1995 16.5353 17.264C16.5353 17.3285 16.7992 17.3723 16.8439 17.3723C16.8993 17.3723 16.9312 17.3285 16.9312 17.2869M16.3587 8.77061C16.3481 8.73728 16.2374 8.72686 16.2034 8.73728C16.2374 8.7477 16.2907 8.78103 16.3353 8.8122C16.346 8.8122 16.3693 8.80178 16.3567 8.76853" fill="#0044B1"/>
	<path d="M9.63112 17.1544C7.8714 12.3011 10.5354 6.94608 15.5868 5.19366C16.0974 5.01674 16.6145 4.88358 17.1315 4.79199C16.0698 4.80449 14.991 4.98349 13.9334 5.35183C8.7842 7.13958 6.09043 12.6715 7.91821 17.7101C9.74595 22.7467 15.4017 25.3815 20.553 23.5937C21.4531 23.2816 22.2765 22.8549 23.0149 22.3367C22.6766 22.499 22.3276 22.6447 21.9638 22.7696C16.9145 24.522 11.3929 22.0099 9.6332 17.1565L9.63112 17.1544Z" fill="#FFD200"/>
	<path d="M25.1572 10.4043C27.2445 14.346 25.6103 19.2265 21.5101 21.3036C21.0952 21.5138 20.6697 21.6865 20.2398 21.8259C21.1463 21.6927 22.0442 21.4159 22.9038 20.9809C27.087 18.8623 28.7212 13.8278 26.5551 9.73617C24.389 5.6445 19.2418 4.04608 15.0586 6.16475C14.3288 6.53525 13.6756 6.99517 13.1074 7.52175C13.3755 7.34483 13.6585 7.18042 13.9522 7.03058C18.0546 4.9535 23.0698 6.46442 25.1572 10.4063V10.4043Z" fill="#ED022C"/>
	<path d="M9.32425 23.5658C4.85798 18.6479 5.38566 11.0556 10.503 6.60806C11.0222 6.15848 11.5669 5.75681 12.1329 5.40723C10.8818 5.91914 9.69234 6.63931 8.622 7.56956C3.40256 12.1046 2.92807 19.9196 7.56453 25.0248C12.201 30.13 20.1908 30.5941 25.4103 26.0591C26.321 25.2662 27.0892 24.3755 27.7083 23.4139C27.3871 23.7636 27.0445 24.1007 26.6763 24.4212C21.559 28.8667 13.7883 28.4838 9.32209 23.5658H9.32425Z" fill="#0044B1"/>
</svg>