<svg width="40" height="40" viewBox="0 0 40 40" fill="none" xmlns="http://www.w3.org/2000/svg">
<mask id="mask0_5602_18474" style="mask-type:alpha" maskUnits="userSpaceOnUse" x="0" y="0" width="41" height="40">
<path d="M20.015 40C28.7781 40 33.6589 40 36.8313 36.8275C40.0038 33.655 40.0038 28.7743 40.0038 20.0111C40.0038 11.2479 40.0038 6.36717 36.8313 3.19468C33.6367 0 28.7781 0 20.015 0C11.2518 0 6.37106 0 3.17639 3.17249C0.00390625 6.36717 0.00390625 11.2479 0.00390625 20.0111C0.00390625 28.7743 0.00390625 33.655 3.17639 36.8275C6.37106 40 11.2518 40 20.015 40Z" fill="white"/>
</mask>
<g mask="url(#mask0_5602_18474)">
<path d="M-15.2527 48.0756L-20.9956 45.8152C-19.8572 43.7531 -18.7018 41.7419 -17.5293 39.7761C-10.079 27.307 -1.74639 16.7641 10.1378 7.41081L6.63741 17.7895C-2.64567 26.6272 -9.20815 36.4506 -15.2527 48.0756ZM-24.9171 48.0756L-30.6543 45.8662C-20.7622 27.1824 -7.6771 8.48154 14.5147 -5.5625L11.5948 3.0826C-5.5598 15.5234 -16.169 31.3916 -24.9171 48.0756Z" fill="url(#paint0_linear_5602_18474)"/>
<path fill-rule="evenodd" clip-rule="evenodd" d="M66.8426 32.9257C66.911 32.7349 67.1162 32.5777 67.31 32.5777C67.5038 32.5777 67.6064 32.7349 67.5437 32.9257C67.481 33.1165 67.2701 33.2681 67.0706 33.2681C66.8711 33.2681 66.7742 33.1109 66.8426 32.9257ZM64.5056 32.9482C64.6025 32.6675 64.916 32.4374 65.201 32.4374C65.486 32.4374 65.6399 32.6675 65.5487 32.9482C65.4518 33.2344 65.1383 33.4589 64.8476 33.4589C64.5569 33.4589 64.4087 33.2288 64.4999 32.9482H64.5056ZM62.2484 32.8303C62.3738 32.4542 62.7956 32.1455 63.1718 32.1455C63.548 32.1455 63.7646 32.4542 63.6335 32.8303C63.5081 33.2064 63.0863 33.5095 62.7044 33.5095C62.3225 33.5095 62.1173 33.2007 62.2484 32.8303ZM60.5726 33.6947C60.3332 33.6666 60.1622 33.5207 60.1109 33.313C59.9855 33.4982 59.8145 33.6554 59.6207 33.7677C59.7176 33.8631 59.7803 33.9922 59.7974 34.1381C59.9969 33.9024 60.2933 33.7284 60.5783 33.6891L60.5726 33.6947ZM66.2954 34.5367C66.3638 34.3514 66.569 34.1943 66.7628 34.1943C66.9566 34.1943 67.0592 34.3514 66.9965 34.5367C66.9338 34.7275 66.7229 34.8791 66.5291 34.8791C66.3353 34.8791 66.2327 34.7219 66.2954 34.5367ZM63.9698 34.5086C64.0667 34.2279 64.3802 33.9978 64.6652 33.9978C64.9502 33.9978 65.1098 34.2336 65.0129 34.5086C64.916 34.7949 64.6025 35.025 64.3175 35.025C64.0325 35.025 63.8729 34.7949 63.9698 34.5086ZM61.6898 34.4581C61.8152 34.082 62.237 33.7733 62.6132 33.7733C62.9894 33.7733 63.206 34.082 63.0749 34.4581C62.9438 34.8342 62.5277 35.1429 62.1458 35.1429C61.7639 35.1429 61.5587 34.8342 61.6898 34.4581ZM59.9684 35.2608C59.7518 35.2158 59.6036 35.0699 59.5637 34.8678C59.4326 35.0418 59.2559 35.1934 59.0621 35.3057C59.1704 35.4011 59.2388 35.5414 59.2616 35.693C59.444 35.4741 59.7062 35.3113 59.9684 35.2608ZM65.7083 36.2487C65.771 36.0578 65.9819 35.9006 66.1757 35.9006C66.3695 35.9006 66.4721 36.0578 66.4037 36.2487C66.341 36.4339 66.1301 36.5911 65.9363 36.5911C65.7425 36.5911 65.6399 36.4339 65.7026 36.2487H65.7083ZM63.4283 36.1252C63.5252 35.8445 63.8387 35.6144 64.1237 35.6144C64.4087 35.6144 64.5683 35.8445 64.4714 36.1252C64.3745 36.4058 64.061 36.636 63.776 36.636C63.491 36.636 63.3371 36.4058 63.4283 36.1252ZM61.1483 36.0522C61.2737 35.6761 61.6955 35.3674 62.0717 35.3674C62.4479 35.3674 62.6588 35.6761 62.5334 36.0522C62.4023 36.4283 61.9919 36.7314 61.61 36.7314C61.2281 36.7314 61.0229 36.4283 61.154 36.0522H61.1483ZM59.4668 36.8156C59.2445 36.7707 59.0849 36.6191 59.045 36.4171C58.9253 36.5742 58.7771 36.7145 58.6061 36.8156C58.703 36.9222 58.76 37.0569 58.7657 37.2141C58.9481 37.0064 59.2103 36.8549 59.4668 36.8156ZM65.1725 37.8203C65.2352 37.6295 65.4461 37.4779 65.6399 37.4779C65.8337 37.4779 65.942 37.6351 65.8736 37.8203C65.8052 38.0112 65.6 38.1683 65.4005 38.1683C65.201 38.1683 65.1041 38.0112 65.1668 37.8203H65.1725ZM62.8868 37.7137C62.9837 37.433 63.2915 37.1973 63.5822 37.1973C63.8729 37.1973 64.0268 37.433 63.9299 37.7137C63.833 37.9943 63.5195 38.2245 63.2345 38.2245C62.9495 38.2245 62.7956 37.9943 62.8925 37.7137H62.8868ZM60.6068 37.6575C60.7379 37.2815 61.154 36.9728 61.5359 36.9728C61.9178 36.9728 62.1287 37.2815 61.9976 37.6575C61.8722 38.028 61.4504 38.3367 61.0685 38.3367C60.6866 38.3367 60.4814 38.028 60.6068 37.6575ZM52.9137 38.5051L48.5759 32.0837H59.216L59.1875 32.1623C59.33 32.1062 59.4725 32.0781 59.615 32.0781C59.9912 32.0781 60.242 32.2914 60.2876 32.6058C60.5099 32.3195 60.8633 32.123 61.1939 32.123C61.6328 32.123 61.8779 32.4823 61.7297 32.9145C61.5929 33.3186 61.1654 33.6554 60.7493 33.7003C61.1312 33.7452 61.3307 34.082 61.1939 34.4861C61.0628 34.8622 60.6809 35.1878 60.2933 35.2608C60.6296 35.3393 60.7949 35.6593 60.6638 36.0354C60.5327 36.4227 60.1337 36.7482 59.7404 36.8156C60.0881 36.8886 60.2648 37.2085 60.1337 37.6014C59.9855 38.0336 59.501 38.3929 59.0564 38.3929C58.7429 38.3929 58.5263 38.2076 58.4864 37.9438C58.2242 38.275 57.8081 38.5051 57.4205 38.5051C57.2837 38.5051 57.164 38.4771 57.0671 38.4265L57.0386 38.5107H52.9023L52.9137 38.5051ZM68.3713 42.468C68.434 42.2771 68.6392 42.12 68.8387 42.12C69.0382 42.12 69.1408 42.2771 69.0724 42.468C69.0097 42.6588 68.7988 42.8104 68.605 42.8104C68.4112 42.8104 68.3086 42.6532 68.377 42.468H68.3713ZM66.0286 42.4848C66.1255 42.2042 66.439 41.974 66.724 41.974C67.009 41.974 67.1686 42.2042 67.0717 42.4848C66.9748 42.7711 66.6613 43.0012 66.3763 43.0012C66.0913 43.0012 65.9317 42.7711 66.0286 42.4848ZM63.7714 42.3726C63.8968 41.9965 64.3186 41.6878 64.6948 41.6878C65.071 41.6878 65.2876 41.9965 65.1622 42.3726C65.0311 42.743 64.615 43.0517 64.2331 43.0517C63.8512 43.0517 63.646 42.743 63.7714 42.3726ZM62.0956 43.237C61.8562 43.2145 61.6909 43.063 61.6339 42.8609C61.5085 43.0461 61.3318 43.2033 61.138 43.3156C61.2349 43.411 61.2976 43.5401 61.3146 43.686C61.5142 43.4503 61.8106 43.2763 62.0899 43.237H62.0956ZM67.8184 44.0733C67.8811 43.8825 68.0863 43.7309 68.2858 43.7309C68.4853 43.7309 68.5822 43.8881 68.5195 44.0733C68.4568 44.2642 68.2402 44.4213 68.0464 44.4213C67.8526 44.4213 67.75 44.2642 67.8184 44.0733ZM65.4985 44.0453C65.5954 43.7646 65.9089 43.5289 66.1939 43.5289C66.4789 43.5289 66.6385 43.7646 66.5416 44.0453C66.4447 44.3259 66.1312 44.5561 65.8462 44.5561C65.5612 44.5561 65.4016 44.3259 65.4985 44.0453ZM63.2185 44.0004C63.3439 43.6299 63.7657 43.3156 64.1419 43.3156C64.5181 43.3156 64.729 43.6243 64.6036 44.0004C64.4725 44.3764 64.0564 44.6851 63.6745 44.6851C63.2926 44.6851 63.0874 44.382 63.2185 44.0004ZM61.4971 44.7974C61.2805 44.7525 61.1323 44.601 61.0867 44.4101C60.9613 44.5841 60.7845 44.7357 60.585 44.8423C60.6933 44.9377 60.7618 45.0781 60.7846 45.2352C60.967 45.0163 61.2292 44.8535 61.4914 44.7974H61.4971ZM67.237 45.7853C67.2997 45.5945 67.5106 45.4373 67.7044 45.4373C67.8982 45.4373 68.0008 45.5945 67.9381 45.7853C67.8754 45.9762 67.6645 46.1277 67.4707 46.1277C67.2769 46.1277 67.1743 45.9705 67.237 45.7853ZM64.9513 45.6618C65.0482 45.3812 65.3617 45.1454 65.6467 45.1454C65.9317 45.1454 66.0856 45.3756 65.9944 45.6618C65.8975 45.9425 65.5897 46.1726 65.299 46.1726C65.0083 46.1726 64.8601 45.9369 64.957 45.6618H64.9513ZM62.6713 45.5889C62.8024 45.2128 63.2185 44.9041 63.5947 44.9041C63.9709 44.9041 64.1875 45.2128 64.0564 45.5889C63.931 45.9649 63.5092 46.268 63.133 46.268C62.7568 46.268 62.5402 45.9649 62.6713 45.5889ZM60.984 46.3579C60.7617 46.313 60.6079 46.1614 60.5623 45.9593C60.4426 46.1165 60.2943 46.2568 60.129 46.3579C60.2259 46.4645 60.283 46.5992 60.2887 46.7564C60.4768 46.5487 60.7333 46.3971 60.9898 46.3579H60.984ZM66.6955 47.3626C66.7639 47.1718 66.9748 47.0202 67.1629 47.0202C67.351 47.0202 67.465 47.1718 67.4023 47.3626C67.3396 47.5534 67.123 47.705 66.9292 47.705C66.7354 47.705 66.6328 47.5534 66.6955 47.3626ZM64.4098 47.2503C64.5067 46.9697 64.8145 46.7395 65.1052 46.7395C65.3959 46.7395 65.5441 46.9697 65.4529 47.2503C65.356 47.5366 65.0425 47.7667 64.7575 47.7667C64.4725 47.7667 64.3129 47.5366 64.4155 47.2503H64.4098ZM62.1298 47.1942C62.2552 46.8181 62.677 46.5094 63.0589 46.5094C63.4408 46.5094 63.646 46.8181 63.5149 47.1942C63.3895 47.5647 62.9677 47.8734 62.5915 47.8734C62.2153 47.8734 62.0044 47.5647 62.1298 47.1942ZM58.989 48.0755L34.838 47.9744L30.5117 41.6765L60.8472 41.6541C60.9442 41.626 61.0467 41.6092 61.1494 41.6092C61.5256 41.6092 61.7764 41.8225 61.8277 42.1368C62.05 41.8561 62.4034 41.6541 62.734 41.6541C63.1729 41.6541 63.418 42.0133 63.2698 42.4455C63.133 42.8497 62.7055 43.1865 62.2894 43.2314C62.6713 43.2819 62.8708 43.6131 62.7283 44.0172C62.5972 44.3933 62.2153 44.7132 61.8277 44.7918C62.164 44.8704 62.335 45.1903 62.2039 45.5664C62.0671 45.9593 61.6738 46.2849 61.2748 46.3522C61.6225 46.4196 61.7992 46.7452 61.6681 47.1325C61.5199 47.5647 61.0354 47.9183 60.5965 47.9183C60.2829 47.9183 60.0663 47.7331 60.0264 47.4692C59.7756 47.7836 59.3766 48.0137 59.0061 48.0306L58.9947 48.0755H58.989Z" fill="url(#paint1_linear_5602_18474)"/>
<path d="M17.9762 18.4463L25.0466 -2.39215L30.5118 0.5616L27.0643 10.7263C23.9162 13.1094 20.8812 15.6772 17.9762 18.4463ZM2.28125 37.724L17.2924 -6.50391L22.7576 -3.55016L13.76 22.9553C9.65116 27.4139 5.81926 32.3256 2.28125 37.724Z" fill="url(#paint2_linear_5602_18474)"/>
<path fill-rule="evenodd" clip-rule="evenodd" d="M15.1826 48.0251L9.14864 46.5781C15.5932 34.105 25.2543 23.7575 37.7785 15.6309L34.7387 24.5259C26.3151 31.0877 19.8135 38.9227 15.1769 48.0251H15.1826ZM5.50432 48.0756L-0.541016 46.6286C7.34644 31.1718 21.4218 15.2215 40.0996 4.76183C40.1567 4.72818 40.2137 4.70013 40.2707 4.67209C40.7099 4.43093 41.246 4.13929 41.8049 3.84766L39.1016 11.7555C23.7316 21.2001 12.1599 34.8285 5.50432 48.0756Z" fill="url(#paint3_linear_5602_18474)"/>
<path d="M42.8068 30.7888L50.6629 7.26764L55.9193 10.9716L49.3006 30.7945H42.8011L42.8068 30.7888ZM30.5117 40.541L43.4028 1.96484L48.6592 5.66883L37.0112 40.5467H30.5174L30.5117 40.541Z" fill="url(#paint4_linear_5602_18474)"/>
</g>
<defs>
<linearGradient id="paint0_linear_5602_18474" x1="-23.8385" y1="20.3517" x2="11.0053" y2="20.1745" gradientUnits="userSpaceOnUse">
<stop stop-color="#006FC9"/>
<stop offset="0.54" stop-color="#0A6FCB"/>
<stop offset="1" stop-color="#003763"/>
</linearGradient>
<linearGradient id="paint1_linear_5602_18474" x1="69.2817" y1="42.6697" x2="175.787" y2="41.6126" gradientUnits="userSpaceOnUse">
<stop stop-color="#0084F0"/>
<stop offset="1" stop-color="#24478C"/>
</linearGradient>
<linearGradient id="paint2_linear_5602_18474" x1="16.0241" y1="14.0796" x2="18.8642" y2="19.9287" gradientUnits="userSpaceOnUse">
<stop stop-color="#007FE4"/>
<stop offset="0.68" stop-color="#006FC9"/>
<stop offset="1" stop-color="#006FC9"/>
</linearGradient>
<linearGradient id="paint3_linear_5602_18474" x1="12.9733" y1="23.4257" x2="39.2575" y2="23.7149" gradientUnits="userSpaceOnUse">
<stop stop-color="#006FC9"/>
<stop offset="0.45" stop-color="#0068BE"/>
<stop offset="1" stop-color="#003763"/>
</linearGradient>
<linearGradient id="paint4_linear_5602_18474" x1="43.1132" y1="24.3511" x2="45.0981" y2="42.8497" gradientUnits="userSpaceOnUse">
<stop stop-color="#0084F0"/>
<stop offset="1" stop-color="#005AA3"/>
</linearGradient>
</defs>
</svg>
