<svg xmlns="http://www.w3.org/2000/svg" style="display: none;">
    <symbol width="25" height="24" viewBox="0 0 25 24" fill="" id="icon-alarm">
        <path fill-rule="evenodd" clip-rule="evenodd" d="M7.60001 17.9001C6.9925 17.9001 6.50001 18.3926 6.50001 19.0001V20.0001C6.50001 20.0553 6.54478 20.1001 6.60001 20.1001H18.6C18.6552 20.1001 18.7 20.0553 18.7 20.0001V19.0001C18.7 18.3926 18.2075 17.9001 17.6 17.9001H7.60001ZM4.70001 19.0001C4.70001 17.3985 5.99839 16.1001 7.60001 16.1001H17.6C19.2016 16.1001 20.5 17.3985 20.5 19.0001V20.0001C20.5 21.0494 19.6494 21.9001 18.6 21.9001H6.60001C5.55067 21.9001 4.70001 21.0494 4.70001 20.0001V19.0001Z" fill="currentColor"/>
        <path fill-rule="evenodd" clip-rule="evenodd" d="M12.6 7.9001C10.3356 7.9001 8.50001 9.73573 8.50001 12.0001V17.0001C8.50001 17.4972 8.09707 17.9001 7.60001 17.9001C7.10296 17.9001 6.70001 17.4972 6.70001 17.0001V12.0001C6.70001 8.74162 9.34153 6.1001 12.6 6.1001C15.8585 6.1001 18.5 8.74162 18.5 12.0001V17.0001C18.5 17.4972 18.0971 17.9001 17.6 17.9001C17.103 17.9001 16.7 17.4972 16.7 17.0001V12.0001C16.7 9.73573 14.8644 7.9001 12.6 7.9001Z" fill="currentColor"/>
        <path fill-rule="evenodd" clip-rule="evenodd" d="M12.6 1.1001C13.0971 1.1001 13.5 1.50304 13.5 2.0001V3.0001C13.5 3.49715 13.0971 3.9001 12.6 3.9001C12.103 3.9001 11.7 3.49715 11.7 3.0001V2.0001C11.7 1.50304 12.103 1.1001 12.6 1.1001ZM4.89257 4.29261C5.24404 3.94114 5.81389 3.94114 6.16536 4.29261L6.87247 4.99972C7.22394 5.35119 7.22394 5.92104 6.87247 6.27251C6.521 6.62398 5.95115 6.62398 5.59968 6.27251L4.89257 5.5654C4.5411 5.21393 4.5411 4.64408 4.89257 4.29261ZM20.3075 4.29263C20.6589 4.64411 20.6589 5.21395 20.3075 5.56543L19.6004 6.27253C19.2489 6.62401 18.679 6.624 18.3276 6.27253C17.9761 5.92106 17.9761 5.35121 18.3276 4.99974L19.0347 4.29263C19.3862 3.94116 19.956 3.94116 20.3075 4.29263ZM1.70001 12.0001C1.70001 11.503 2.10296 11.1001 2.60001 11.1001H3.60001C4.09707 11.1001 4.50001 11.503 4.50001 12.0001C4.50001 12.4972 4.09707 12.9001 3.60001 12.9001H2.60001C2.10296 12.9001 1.70001 12.4972 1.70001 12.0001ZM20.7 12.0001C20.7 11.503 21.103 11.1001 21.6 11.1001H22.6C23.0971 11.1001 23.5 11.503 23.5 12.0001C23.5 12.4972 23.0971 12.9001 22.6 12.9001H21.6C21.103 12.9001 20.7 12.4972 20.7 12.0001Z" fill="currentColor"/>
        <path fill-rule="evenodd" clip-rule="evenodd" d="M12.6 13.1001C13.0971 13.1001 13.5 13.503 13.5 14.0001V17.0001C13.5 17.4972 13.0971 17.9001 12.6 17.9001C12.103 17.9001 11.7 17.4972 11.7 17.0001V14.0001C11.7 13.503 12.103 13.1001 12.6 13.1001Z" fill="currentColor"/>
    </symbol> 
    <symbol width="25" height="24" viewBox="0 0 25 24" fill="none" id="icon-arrow-left">
        <path fill-rule="evenodd" clip-rule="evenodd" d="M11.0364 5.36358C11.3879 5.71505 11.3879 6.2849 11.0364 6.63637L6.5728 11.1H20.4C20.8971 11.1 21.3 11.5029 21.3 12C21.3 12.497 20.8971 12.9 20.4 12.9H6.57279L11.0364 17.3636C11.3879 17.7151 11.3879 18.2849 11.0364 18.6364C10.6849 18.9878 10.1151 18.9878 9.7636 18.6364L3.7636 12.6364C3.59482 12.4676 3.5 12.2387 3.5 12C3.5 11.7613 3.59482 11.5323 3.7636 11.3636L9.76361 5.36358C10.1151 5.01211 10.6849 5.01211 11.0364 5.36358Z" fill="currentColor"/>
    </symbol>
    <symbol width="24" height="24" viewBox="0 0 24 24" fill="none" id="icon-award">
        <path fill-rule="evenodd" clip-rule="evenodd" d="M8.88874 12.3055C9.7139 11.4803 10.8331 11.0167 12 11.0167C13.167 11.0167 14.2861 11.4803 15.1113 12.3055C15.9364 13.1306 16.4 14.2498 16.4 15.4167C16.4 16.5837 15.9364 17.7029 15.1113 18.528C14.2861 19.3532 13.167 19.8167 12 19.8167C10.8331 19.8167 9.7139 19.3532 8.88874 18.528C8.06358 17.7029 7.60001 16.5837 7.60001 15.4167C7.60001 14.2498 8.06358 13.1306 8.88874 12.3055ZM12 12.8167C11.3104 12.8167 10.6491 13.0907 10.1615 13.5783C9.67393 14.0659 9.40001 14.7272 9.40001 15.4167C9.40001 16.1063 9.67393 16.7676 10.1615 17.2552C10.6491 17.7428 11.3104 18.0167 12 18.0167C12.6896 18.0167 13.3509 17.7428 13.8385 17.2552C14.3261 16.7676 14.6 16.1063 14.6 15.4167C14.6 14.7272 14.3261 14.0659 13.8385 13.5783C13.3509 13.0907 12.6896 12.8167 12 12.8167Z" fill="currentColor"/>
        <path fill-rule="evenodd" clip-rule="evenodd" d="M8.76675 6.3867C8.76675 5.88964 9.1697 5.4867 9.66675 5.4867H14.3334C14.8305 5.4867 15.2334 5.88964 15.2334 6.3867C15.2334 6.88376 14.8305 7.2867 14.3334 7.2867H9.66675C9.1697 7.2867 8.76675 6.88376 8.76675 6.3867Z" fill="currentColor"/>
        <path fill-rule="evenodd" clip-rule="evenodd" d="M9.66675 17.5167C10.1638 17.5167 10.5668 17.9196 10.5668 18.4167V21.6271L11.5976 21.1117C11.851 20.985 12.1492 20.985 12.4026 21.1117L13.4334 21.6271V18.4167C13.4334 17.9196 13.8364 17.5167 14.3334 17.5167C14.8305 17.5167 15.2334 17.9196 15.2334 18.4167V23.0834C15.2334 23.3953 15.0719 23.685 14.8066 23.849C14.5412 24.0129 14.2099 24.0278 13.9309 23.8884L12.0001 22.9229L10.0692 23.8884C9.79026 24.0278 9.45893 24.0129 9.1936 23.849C8.92826 23.685 8.76675 23.3953 8.76675 23.0834V18.4167C8.76675 17.9196 9.1697 17.5167 9.66675 17.5167Z" fill="currentColor"/>
        <path fill-rule="evenodd" clip-rule="evenodd" d="M7.33334 2.9167C6.9532 2.9167 6.58862 3.06771 6.31982 3.33651C6.05102 3.60531 5.90001 3.96989 5.90001 4.35003V18.35C5.90001 18.7302 6.05102 19.0947 6.31982 19.3636C6.58862 19.6324 6.9532 19.7834 7.33334 19.7834H9.66667C10.1637 19.7834 10.5667 20.1863 10.5667 20.6834C10.5667 21.1804 10.1637 21.5834 9.66667 21.5834H7.33334C6.47581 21.5834 5.65339 21.2427 5.04703 20.6363C4.44066 20.03 4.10001 19.2076 4.10001 18.35V4.35003C4.10001 3.4925 4.44066 2.67009 5.04703 2.06372C5.6534 1.45735 6.47581 1.1167 7.33334 1.1167H16.6667C17.5242 1.1167 18.3466 1.45735 18.953 2.06372C19.5594 2.67009 19.9 3.4925 19.9 4.35003V18.35C19.9 19.2076 19.5594 20.03 18.953 20.6363C18.3466 21.2427 17.5242 21.5834 16.6667 21.5834H14.3333C13.8363 21.5834 13.4333 21.1804 13.4333 20.6834C13.4333 20.1863 13.8363 19.7834 14.3333 19.7834H16.6667C17.0468 19.7834 17.4114 19.6324 17.6802 19.3636C17.949 19.0947 18.1 18.7302 18.1 18.35V4.35003C18.1 3.96989 17.949 3.60531 17.6802 3.33651C17.4114 3.06771 17.0468 2.9167 16.6667 2.9167H7.33334Z" fill="currentColor"/>
    </symbol>
    <symbol width="25" height="24" viewBox="0 0 25 24" fill="none" id="icon-backspace">
        <path fill-rule="evenodd" clip-rule="evenodd" d="M5.0427 5.56117C5.55903 4.65761 6.51993 4.09998 7.56061 4.09998H19.4C21.0016 4.09998 22.3 5.39835 22.3 6.99998V17C22.3 18.6016 21.0016 19.9 19.4 19.9H7.56061C6.51993 19.9 5.55903 19.3423 5.0427 18.4388L2.18556 13.4388C1.6761 12.5472 1.6761 11.4527 2.18556 10.5612L2.96698 11.0077L2.18556 10.5612L5.0427 5.56117ZM7.56061 5.89998C7.16587 5.89998 6.80139 6.11149 6.60554 6.45422L3.7484 11.4542C3.55516 11.7924 3.55516 12.2076 3.7484 12.5457L6.60554 17.5457C6.80139 17.8885 7.16587 18.1 7.56061 18.1H19.4C20.0075 18.1 20.5 17.6075 20.5 17V6.99998C20.5 6.39246 20.0075 5.89998 19.4 5.89998H7.56061ZM10.7636 9.36358C11.115 9.01211 11.6849 9.01211 12.0364 9.36358L13.4 10.7272L14.7636 9.36358C15.115 9.01211 15.6849 9.01211 16.0364 9.36358C16.3878 9.71505 16.3878 10.2849 16.0364 10.6364L14.6728 12L16.0364 13.3636C16.3878 13.7151 16.3878 14.2849 16.0364 14.6364C15.6849 14.9878 15.115 14.9878 14.7636 14.6364L13.4 13.2728L12.0364 14.6364C11.6849 14.9878 11.115 14.9878 10.7636 14.6364C10.4121 14.2849 10.4121 13.7151 10.7636 13.3636L12.1272 12L10.7636 10.6364C10.4121 10.2849 10.4121 9.71505 10.7636 9.36358Z" fill="currentColor"/>
    </symbol>
    <symbol width="25" height="24" viewBox="0 0 25 24" fill="none" id="icon-barcode">
        <path d="M2.69965 17V15C2.69965 14.5029 3.10298 14.0996 3.60004 14.0996C4.09709 14.0996 4.50043 14.5029 4.50043 15V17C4.50043 17.6075 4.99252 18.0996 5.60004 18.0996H7.60004L7.69183 18.1045C8.14578 18.1505 8.50043 18.5339 8.50043 19C8.50043 19.4661 8.14578 19.8495 7.69183 19.8955L7.60004 19.9004H5.60004C3.99841 19.9004 2.69965 18.6016 2.69965 17ZM20.6996 17V15C20.6996 14.5029 21.103 14.0996 21.6 14.0996C22.0971 14.0996 22.5004 14.5029 22.5004 15V17C22.5004 18.6016 21.2017 19.9004 19.6 19.9004H17.6C17.103 19.9004 16.6996 19.4971 16.6996 19C16.6996 18.5029 17.103 18.0996 17.6 18.0996H19.6C20.2076 18.0996 20.6996 17.6075 20.6996 17ZM7.69965 14V10C7.69965 9.50294 8.10298 9.09961 8.60004 9.09961C9.09709 9.09961 9.50043 9.50294 9.50043 10V14C9.50043 14.4971 9.09709 14.9004 8.60004 14.9004C8.10298 14.9004 7.69965 14.4971 7.69965 14ZM15.6996 14V10C15.6996 9.50294 16.103 9.09961 16.6 9.09961C17.0971 9.09961 17.5004 9.50294 17.5004 10V14C17.5004 14.4971 17.0971 14.9004 16.6 14.9004C16.103 14.9004 15.6996 14.4971 15.6996 14ZM11.6996 12V10C11.6996 9.50294 12.103 9.09961 12.6 9.09961C13.0971 9.09961 13.5004 9.50294 13.5004 10V12C13.5004 12.4971 13.0971 12.9004 12.6 12.9004C12.103 12.9004 11.6996 12.4971 11.6996 12ZM2.69965 9V7C2.69965 5.39837 3.99841 4.09961 5.60004 4.09961H7.60004C8.09709 4.09961 8.50043 4.50294 8.50043 5C8.50043 5.49706 8.09709 5.90039 7.60004 5.90039H5.60004C4.99252 5.90039 4.50043 6.39249 4.50043 7V9C4.50043 9.49706 4.09709 9.90039 3.60004 9.90039C3.10298 9.90039 2.69965 9.49706 2.69965 9ZM20.6996 9V7C20.6996 6.39249 20.2076 5.90039 19.6 5.90039H17.6C17.103 5.90039 16.6996 5.49706 16.6996 5C16.6996 4.50294 17.103 4.09961 17.6 4.09961H19.6C21.2017 4.09961 22.5004 5.39837 22.5004 7V9C22.5004 9.49706 22.0971 9.90039 21.6 9.90039C21.103 9.90039 20.6996 9.49706 20.6996 9Z" fill="currentColor"/>
    </symbol>
    <symbol width="25" height="24" viewBox="0 0 25 24" fill="none" id="icon-barrier">
        <path fill-rule="evenodd" clip-rule="evenodd" d="M2.5 7.0001C2.5 5.39847 3.79837 4.1001 5.4 4.1001H19.4C21.0016 4.1001 22.3 5.39847 22.3 7.0001V11.0001C22.3 12.6017 21.0016 13.9001 19.4 13.9001H5.4C3.79837 13.9001 2.5 12.6017 2.5 11.0001V7.0001ZM5.4 5.9001C4.79249 5.9001 4.3 6.39258 4.3 7.0001V11.0001C4.3 11.6076 4.79249 12.1001 5.4 12.1001H19.4C20.0075 12.1001 20.5 11.6076 20.5 11.0001V7.0001C20.5 6.39258 20.0075 5.9001 19.4 5.9001H5.4Z" fill="currentColor"/>
        <path fill-rule="evenodd" clip-rule="evenodd" d="M7.4 12.1001C7.89706 12.1001 8.3 12.503 8.3 13.0001V20.1001H8.4C8.89706 20.1001 9.3 20.503 9.3 21.0001C9.3 21.4972 8.89706 21.9001 8.4 21.9001H6.4C5.90294 21.9001 5.5 21.4972 5.5 21.0001C5.5 20.503 5.90294 20.1001 6.4 20.1001H6.5V13.0001C6.5 12.503 6.90294 12.1001 7.4 12.1001Z" fill="currentColor"/>
        <path fill-rule="evenodd" clip-rule="evenodd" d="M17.4 12.1001C17.8971 12.1001 18.3 12.503 18.3 13.0001V20.1001H18.4C18.8971 20.1001 19.3 20.503 19.3 21.0001C19.3 21.4972 18.8971 21.9001 18.4 21.9001H16.4C15.9029 21.9001 15.5 21.4972 15.5 21.0001C15.5 20.503 15.9029 20.1001 16.4 20.1001H16.5V13.0001C16.5 12.503 16.9029 12.1001 17.4 12.1001Z" fill="currentColor"/>
        <path fill-rule="evenodd" clip-rule="evenodd" d="M7.4 2.1001C7.89706 2.1001 8.3 2.50304 8.3 3.0001V4.0001C8.3 4.49715 7.89706 4.9001 7.4 4.9001C6.90294 4.9001 6.5 4.49715 6.5 4.0001V3.0001C6.5 2.50304 6.90294 2.1001 7.4 2.1001Z" fill="currentColor"/>
        <path fill-rule="evenodd" clip-rule="evenodd" d="M17.4 2.1001C17.8971 2.1001 18.3 2.50304 18.3 3.0001V4.0001C18.3 4.49715 17.8971 4.9001 17.4 4.9001C16.9029 4.9001 16.5 4.49715 16.5 4.0001V3.0001C16.5 2.50304 16.9029 2.1001 17.4 2.1001Z" fill="currentColor"/>
        <path fill-rule="evenodd" clip-rule="evenodd" d="M9.25453 4.67287C9.71139 4.86867 9.92303 5.39776 9.72723 5.85462L6.72723 12.8546C6.53143 13.3115 6.00234 13.5231 5.54547 13.3273C5.08861 13.1315 4.87697 12.6024 5.07277 12.1456L8.07277 5.14557C8.26857 4.6887 8.79766 4.47707 9.25453 4.67287Z" fill="currentColor"/>
        <path fill-rule="evenodd" clip-rule="evenodd" d="M19.2545 4.67287C19.7114 4.86867 19.923 5.39776 19.7272 5.85462L16.7272 12.8546C16.5314 13.3115 16.0023 13.5231 15.5455 13.3273C15.0886 13.1315 14.877 12.6024 15.0728 12.1456L18.0728 5.14557C18.2686 4.6887 18.7977 4.47707 19.2545 4.67287Z" fill="currentColor"/>
        <path fill-rule="evenodd" clip-rule="evenodd" d="M14.2545 4.67287C14.7114 4.86867 14.923 5.39776 14.7272 5.85462L11.7272 12.8546C11.5314 13.3115 11.0023 13.5231 10.5455 13.3273C10.0886 13.1315 9.87697 12.6024 10.0728 12.1456L13.0728 5.14557C13.2686 4.6887 13.7977 4.47707 14.2545 4.67287Z" fill="currentColor"/>
    </symbol>
    <symbol width="25" height="24" viewBox="0 0 25 24" fill="none" id="icon-book">
        <path fill-rule="evenodd" clip-rule="evenodd" d="M7.90003 18.6943C6.47818 18.6943 5.08138 19.0686 3.85003 19.7795C3.41956 20.028 2.86913 19.8805 2.62061 19.4501C2.37208 19.0196 2.51956 18.4692 2.95003 18.2206C4.45502 17.3517 6.16222 16.8943 7.90003 16.8943C9.46683 16.8943 11.0088 17.2661 12.4 17.9761C13.7913 17.2661 15.3332 16.8943 16.9 16.8943C18.6378 16.8943 20.345 17.3517 21.85 18.2206C22.2805 18.4692 22.428 19.0196 22.1795 19.4501C21.9309 19.8805 21.3805 20.028 20.95 19.7795C19.7187 19.0686 18.3219 18.6943 16.9 18.6943C15.4782 18.6943 14.0814 19.0686 12.85 19.7795C12.5716 19.9403 12.2285 19.9403 11.95 19.7795C10.7187 19.0686 9.32188 18.6943 7.90003 18.6943Z" fill="currentColor"/>
        <path fill-rule="evenodd" clip-rule="evenodd" d="M7.90003 5.69429C6.47818 5.69429 5.08138 6.06856 3.85003 6.77948C3.41956 7.02801 2.86913 6.88052 2.62061 6.45006C2.37208 6.0196 2.51956 5.46916 2.95003 5.22064C4.45502 4.35173 6.16222 3.89429 7.90003 3.89429C9.46683 3.89429 11.0088 4.26613 12.4 4.97612C13.7913 4.26613 15.3332 3.89429 16.9 3.89429C18.6378 3.89429 20.345 4.35173 21.85 5.22064C22.2805 5.46916 22.428 6.0196 22.1795 6.45006C21.9309 6.88052 21.3805 7.02801 20.95 6.77948C19.7187 6.06856 18.3219 5.69429 16.9 5.69429C15.4782 5.69429 14.0814 6.06856 12.85 6.77948C12.5716 6.94025 12.2285 6.94025 11.95 6.77948C10.7187 6.06856 9.32188 5.69429 7.90003 5.69429Z" fill="currentColor"/>
        <path fill-rule="evenodd" clip-rule="evenodd" d="M3.40003 5.10006C3.89708 5.10006 4.30003 5.503 4.30003 6.00006V19.0001C4.30003 19.4971 3.89708 19.9001 3.40003 19.9001C2.90297 19.9001 2.50003 19.4971 2.50003 19.0001V6.00006C2.50003 5.503 2.90297 5.10006 3.40003 5.10006Z" fill="currentColor"/>
        <path fill-rule="evenodd" clip-rule="evenodd" d="M12.4 5.10006C12.8971 5.10006 13.3 5.503 13.3 6.00006V19.0001C13.3 19.4971 12.8971 19.9001 12.4 19.9001C11.903 19.9001 11.5 19.4971 11.5 19.0001V6.00006C11.5 5.503 11.903 5.10006 12.4 5.10006Z" fill="currentColor"/>
        <path fill-rule="evenodd" clip-rule="evenodd" d="M21.4 5.10006C21.8971 5.10006 22.3 5.503 22.3 6.00006V19.0001C22.3 19.4971 21.8971 19.9001 21.4 19.9001C20.903 19.9001 20.5 19.4971 20.5 19.0001V6.00006C20.5 5.503 20.903 5.10006 21.4 5.10006Z" fill="currentColor"/>
    </symbol>
    <symbol width="25" height="24" viewBox="0 0 25 24" fill="none" id="icon-bookmark">
        <path fill-rule="evenodd" clip-rule="evenodd" d="M7.80002 3.89998C7.19251 3.89998 6.70002 4.39246 6.70002 4.99998V19.9948C6.70002 20.0237 6.70694 20.0383 6.71276 20.0474C6.7204 20.0595 6.73398 20.0732 6.75393 20.0836C6.77388 20.0939 6.7929 20.0971 6.80715 20.0965C6.818 20.096 6.8339 20.0932 6.85753 20.0766L11.1324 17.072C12.133 16.3688 13.4671 16.3688 14.4676 17.072L18.7425 20.0766C18.7661 20.0932 18.782 20.096 18.7929 20.0965C18.8071 20.0971 18.8262 20.0939 18.8461 20.0836C18.8661 20.0732 18.8796 20.0595 18.8873 20.0474C18.8931 20.0383 18.9 20.0237 18.9 19.9948V4.99998C18.9 4.39246 18.4075 3.89998 17.8 3.89998H7.80002ZM4.90002 4.99998C4.90002 3.39835 6.1984 2.09998 7.80002 2.09998H17.8C19.4016 2.09998 20.7 3.39835 20.7 4.99998V19.9948C20.7 21.5336 18.9664 22.4341 17.7075 21.5493L13.4326 18.5446C13.0531 18.2779 12.547 18.2779 12.1675 18.5446L7.89258 21.5493C6.63363 22.4341 4.90002 21.5336 4.90002 19.9948V4.99998Z" fill="currentColor"/>
    </symbol>
    <symbol width="24" height="24" viewBox="0 0 24 24" fill="none" id="icon-bubble-alert">
        <path fill-rule="evenodd" clip-rule="evenodd" d="M18.0022 4.89998L6.0022 4.9C5.39469 4.9 4.9022 5.39248 4.9022 6V16.0357C4.9022 16.6433 5.39469 17.1357 6.0022 17.1357H8.65182C9.09819 17.1357 9.53031 17.2929 9.87239 17.5796L12.0013 19.3642L14.1638 17.5726C14.5046 17.2903 14.9333 17.1357 15.3759 17.1357L18.0022 17.1357C18.6097 17.1357 19.1022 16.6432 19.1022 16.0357V5.99998C19.1022 5.39246 18.6097 4.89997 18.0022 4.89998ZM6.0022 3.1L18.0022 3.09998C19.6038 3.09997 20.9022 4.39835 20.9022 5.99998V16.0357C20.9022 17.6373 19.6038 18.9357 18.0022 18.9357L15.3759 18.9357C15.3526 18.9357 15.3301 18.9439 15.3121 18.9587L12.5721 21.2288C12.2375 21.506 11.7527 21.5046 11.4198 21.2255L8.71606 18.9591C8.69806 18.944 8.67532 18.9357 8.65182 18.9357H6.0022C4.40058 18.9357 3.1022 17.6374 3.1022 16.0357V6C3.1022 4.39837 4.40057 3.1 6.0022 3.1ZM12 7.0569C12.4971 7.0569 12.9 7.45984 12.9 7.9569V10.5C12.9 10.997 12.4971 11.4 12 11.4C11.5029 11.4 11.1 10.997 11.1 10.5V7.9569C11.1 7.45984 11.5029 7.0569 12 7.0569Z" fill="currentColor"/>
        <path fill-rule="evenodd" clip-rule="evenodd" d="M11.05 13.5C11.05 12.9753 11.4753 12.55 12 12.55C12.5247 12.55 12.95 12.9753 12.95 13.5C12.95 14.0246 12.5247 14.45 12 14.45C11.4753 14.45 11.05 14.0246 11.05 13.5Z" fill="currentColor"/>
    </symbol>
    <symbol width="24" height="24" viewBox="0 0 24 24" fill="none" id="icon-bubble-heart">
        <path fill-rule="evenodd" clip-rule="evenodd" d="M18.0022 4.89998L6.0022 4.9C5.39469 4.9 4.9022 5.39248 4.9022 6V16.0357C4.9022 16.6433 5.39469 17.1357 6.0022 17.1357H8.65182C9.09819 17.1357 9.53031 17.2929 9.87239 17.5796L12.0013 19.3642L14.1638 17.5726C14.5046 17.2903 14.9333 17.1357 15.3759 17.1357L18.0022 17.1357C18.6097 17.1357 19.1022 16.6432 19.1022 16.0357V5.99998C19.1022 5.39246 18.6097 4.89997 18.0022 4.89998ZM6.0022 3.1L18.0022 3.09998C19.6038 3.09997 20.9022 4.39835 20.9022 5.99998V16.0357C20.9022 17.6373 19.6038 18.9357 18.0022 18.9357L15.3759 18.9357C15.3526 18.9357 15.3301 18.9439 15.3121 18.9587L12.5721 21.2288C12.2375 21.506 11.7527 21.5046 11.4198 21.2255L8.71606 18.9591C8.69806 18.944 8.67532 18.9357 8.65182 18.9357H6.0022C4.40058 18.9357 3.1022 17.6374 3.1022 16.0357V6C3.1022 4.39837 4.40057 3.1 6.0022 3.1ZM9.96974 9.65741C9.81044 9.82733 9.64869 10.1377 9.64869 10.6675C9.64869 11.2833 10.1145 11.9547 10.8459 12.5589C11.1874 12.841 11.5386 13.0676 11.8148 13.221C11.8838 13.2593 11.9459 13.2919 12 13.3188C12.0541 13.2919 12.1162 13.2593 12.1853 13.221C12.4614 13.0676 12.8126 12.841 13.1541 12.5589C13.8855 11.9547 14.3513 11.2833 14.3513 10.6675C14.3513 10.1377 14.1896 9.82733 14.0303 9.65741C13.8667 9.48289 13.6551 9.39997 13.445 9.39997C13.1775 9.39997 12.9638 9.47973 12.8148 9.56102C12.7404 9.60159 12.6857 9.64075 12.6535 9.66594C12.6382 9.6779 12.6286 9.68621 12.6252 9.68931C12.2766 10.0261 11.7233 10.026 11.3748 9.68925C11.3717 9.6863 11.3687 9.68333 11.3657 9.68032L11.3674 9.68203L11.3705 9.68508L11.3747 9.68913C11.3758 9.69013 11.3763 9.69061 11.3763 9.6906C11.3763 9.6906 11.3759 9.69028 11.3753 9.68966C11.3751 9.68954 11.375 9.6894 11.3748 9.68925C11.3713 9.6861 11.3617 9.67782 11.3466 9.66594C11.3144 9.64075 11.2596 9.60159 11.1852 9.56102C11.0362 9.47973 10.8225 9.39997 10.555 9.39997C10.3449 9.39997 10.1334 9.48289 9.96974 9.65741ZM11.3657 9.68032C11.3656 9.68021 11.3655 9.6801 11.3653 9.67998L11.3656 9.68023L11.3657 9.68032ZM12 7.95562C12.3459 7.7746 12.8376 7.59997 13.445 7.59997C14.1381 7.59997 14.8297 7.87832 15.3434 8.42631C15.8615 8.9789 16.1513 9.75233 16.1513 10.6675C16.1513 12.1289 15.127 13.2639 14.3005 13.9466C13.863 14.3081 13.4182 14.5951 13.0594 14.7945C12.8802 14.8941 12.7136 14.9766 12.572 15.0373C12.5021 15.0672 12.4282 15.0962 12.3556 15.1195L12.3535 15.1201C12.3087 15.1345 12.1665 15.1801 12 15.1801C11.8336 15.1801 11.6913 15.1345 11.6465 15.1201L11.6445 15.1195C11.5718 15.0962 11.4979 15.0672 11.428 15.0373C11.2864 14.9766 11.1199 14.8941 10.9406 14.7945C10.5818 14.5951 10.1371 14.3081 9.69955 13.9466C8.87303 13.2639 7.84869 12.1289 7.84869 10.6675C7.84869 9.75233 8.13852 8.9789 8.65658 8.42631C9.17032 7.87832 9.86193 7.59997 10.555 7.59997C11.1625 7.59997 11.6541 7.7746 12 7.95562Z" fill="currentColor"/>
    </symbol>
    <symbol width="25" height="24" viewBox="0 0 25 24" fill="none" id="icon-bubble-question">
        <path fill-rule="evenodd" clip-rule="evenodd" d="M18.4022 4.89998L6.4022 4.9C5.79468 4.9 5.3022 5.39248 5.3022 6V16.0357C5.3022 16.6433 5.79468 17.1357 6.4022 17.1357H9.05182C9.49818 17.1357 9.9303 17.2929 10.2724 17.5796L12.4013 19.3642L14.5638 17.5726C14.9046 17.2903 15.3333 17.1357 15.7759 17.1357L18.4022 17.1357C19.0097 17.1357 19.5022 16.6432 19.5022 16.0357V5.99998C19.5022 5.39246 19.0097 4.89997 18.4022 4.89998ZM6.40219 3.1L18.4022 3.09998C20.0038 3.09997 21.3022 4.39835 21.3022 5.99998V16.0357C21.3022 17.6373 20.0038 18.9357 18.4022 18.9357L15.7759 18.9357C15.7526 18.9357 15.7301 18.9439 15.7121 18.9587L12.9721 21.2288C12.6375 21.506 12.1527 21.5046 11.8198 21.2255L9.11606 18.9591C9.09805 18.944 9.07531 18.9357 9.05182 18.9357H6.4022C4.80057 18.9357 3.5022 17.6374 3.5022 16.0357V6C3.5022 4.39837 4.80057 3.1 6.40219 3.1Z" fill="currentColor"/>
        <path fill-rule="evenodd" clip-rule="evenodd" d="M12.4334 8.33393C12.1381 8.33393 11.8792 8.49357 11.7397 8.73462C11.5461 9.06926 11.1179 9.18362 10.7833 8.99004C10.4486 8.79646 10.3343 8.36825 10.5279 8.03361C10.9073 7.37774 11.6181 6.93393 12.4334 6.93393C13.6487 6.93393 14.6338 7.91907 14.6338 9.13429C14.6338 9.62986 14.5011 10.0302 14.2542 10.3512C14.0254 10.6486 13.7328 10.8273 13.5469 10.9402C13.3245 11.0753 13.2432 11.1257 13.1868 11.188L13.1856 11.1894C13.166 11.2109 13.1334 11.2468 13.1334 11.3848C13.1334 11.7714 12.82 12.0848 12.4334 12.0848C12.0468 12.0848 11.7334 11.7714 11.7334 11.3848C11.7334 10.9111 11.8869 10.5379 12.1489 10.2485C12.352 10.024 12.6113 9.86882 12.7721 9.77255C12.7894 9.76222 12.8055 9.75257 12.8203 9.74358C13.0095 9.6287 13.092 9.56593 13.1445 9.49762C13.1789 9.45289 13.2338 9.36336 13.2338 9.13429C13.2338 8.69227 12.8755 8.33393 12.4334 8.33393Z" fill="currentColor"/>
        <path fill-rule="evenodd" clip-rule="evenodd" d="M11.45 13.95C11.45 13.4529 11.8529 13.05 12.35 13.05C12.8471 13.05 13.25 13.4529 13.25 13.95C13.25 14.447 12.8471 14.85 12.35 14.85C11.8529 14.85 11.45 14.447 11.45 13.95Z" fill="currentColor"/>
    </symbol>
    <symbol width="25" height="24" viewBox="0 0 25 24" fill="none" id="icon-bubblet-list">
        <path fill-rule="evenodd" clip-rule="evenodd" d="M6.80002 5.9001C6.19251 5.9001 5.70002 6.39258 5.70002 7.0001C5.70002 7.60761 6.19251 8.1001 6.80002 8.1001C7.40754 8.1001 7.90002 7.60761 7.90002 7.0001C7.90002 6.39258 7.40754 5.9001 6.80002 5.9001ZM3.90002 7.0001C3.90002 5.39847 5.1984 4.1001 6.80002 4.1001C8.40165 4.1001 9.70002 5.39847 9.70002 7.0001C9.70002 8.60172 8.40165 9.9001 6.80002 9.9001C5.1984 9.9001 3.90002 8.60172 3.90002 7.0001ZM12.9 7.0001C12.9 6.50304 13.303 6.1001 13.8 6.1001H20.8C21.2971 6.1001 21.7 6.50304 21.7 7.0001C21.7 7.49715 21.2971 7.9001 20.8 7.9001H13.8C13.303 7.9001 12.9 7.49715 12.9 7.0001ZM6.80002 15.9001C6.19251 15.9001 5.70002 16.3926 5.70002 17.0001C5.70002 17.6076 6.19251 18.1001 6.80002 18.1001C7.40754 18.1001 7.90002 17.6076 7.90002 17.0001C7.90002 16.3926 7.40754 15.9001 6.80002 15.9001ZM3.90002 17.0001C3.90002 15.3985 5.1984 14.1001 6.80002 14.1001C8.40165 14.1001 9.70002 15.3985 9.70002 17.0001C9.70002 18.6017 8.40165 19.9001 6.80002 19.9001C5.1984 19.9001 3.90002 18.6017 3.90002 17.0001ZM12.9 17.0001C12.9 16.503 13.303 16.1001 13.8 16.1001H20.8C21.2971 16.1001 21.7 16.503 21.7 17.0001C21.7 17.4972 21.2971 17.9001 20.8 17.9001H13.8C13.303 17.9001 12.9 17.4972 12.9 17.0001Z" fill="currentColor"/>
    </symbol>
    <symbol width="24" height="24" viewBox="0 0 24 24" fill="none" id="icon-business">
        <path fill-rule="evenodd" clip-rule="evenodd" d="M9.77775 3.09999C9.04751 3.09999 8.45553 3.69197 8.45553 4.42221V5.74443H15.5444V4.42221C15.5444 3.69197 14.9524 3.09999 14.2222 3.09999H9.77775ZM17.3444 5.74443V4.42221C17.3444 2.69785 15.9466 1.29999 14.2222 1.29999H9.77775C8.0534 1.29999 6.65553 2.69785 6.65553 4.42221V5.74443H4.2222C2.49784 5.74443 1.09998 7.1423 1.09998 8.86665V18.8667C1.09998 20.591 2.49784 21.9889 4.2222 21.9889H19.7778C21.5021 21.9889 22.9 20.591 22.9 18.8667V8.86665C22.9 7.1423 21.5021 5.74443 19.7778 5.74443H17.3444ZM4.2222 7.54443C3.49195 7.54443 2.89998 8.13641 2.89998 8.86665V18.8667C2.89998 19.5969 3.49195 20.1889 4.2222 20.1889H19.7778C20.508 20.1889 21.1 19.5969 21.1 18.8667V8.86665C21.1 8.13641 20.508 7.54443 19.7778 7.54443H4.2222Z" fill="currentColor"/>
    </symbol>
    <symbol width="25" height="24" viewBox="0 0 25 24" fill="none" id="icon-calculator">
        <path fill-rule="evenodd" clip-rule="evenodd" d="M4.60004 4.9C4.60004 3.29837 5.89841 2 7.50004 2H17.5C19.1017 2 20.4 3.29837 20.4 4.9V18.9C20.4 20.5016 19.1017 21.8 17.5 21.8H7.50004C5.89841 21.8 4.60004 20.5016 4.60004 18.9V4.9ZM7.50004 3.8C6.89252 3.8 6.40004 4.29249 6.40004 4.9V7H18.6V4.9C18.6 4.29249 18.1075 3.8 17.5 3.8H7.50004ZM18.6 8.8H6.40004V18.9C6.40004 19.5075 6.89252 20 7.50004 20H17.5C18.1075 20 18.6 19.5075 18.6 18.9V8.8Z" fill="currentColor"/>
        <path d="M10.85 12.25C10.85 12.5261 10.6262 12.75 10.35 12.75C10.0739 12.75 9.85004 12.5261 9.85004 12.25C9.85004 11.9739 10.0739 11.75 10.35 11.75C10.6262 11.75 10.85 11.9739 10.85 12.25Z" fill="currentColor"/>
        <path d="M10.85 16.75C10.85 17.0261 10.6262 17.25 10.35 17.25C10.0739 17.25 9.85004 17.0261 9.85004 16.75C9.85004 16.4739 10.0739 16.25 10.35 16.25C10.6262 16.25 10.85 16.4739 10.85 16.75Z" fill="currentColor"/>
        <path d="M15.35 12.25C15.35 12.5261 15.1262 12.75 14.85 12.75C14.5739 12.75 14.35 12.5261 14.35 12.25C14.35 11.9739 14.5739 11.75 14.85 11.75C15.1262 11.75 15.35 11.9739 15.35 12.25Z" fill="currentColor"/>
        <path d="M15.35 16.75C15.35 17.0261 15.1262 17.25 14.85 17.25C14.5739 17.25 14.35 17.0261 14.35 16.75C14.35 16.4739 14.5739 16.25 14.85 16.25C15.1262 16.25 15.35 16.4739 15.35 16.75Z" fill="currentColor"/>
        <path fill-rule="evenodd" clip-rule="evenodd" d="M11.6 12.25C11.6 12.9404 11.0404 13.5 10.35 13.5C9.65968 13.5 9.10004 12.9404 9.10004 12.25C9.10004 11.5596 9.65968 11 10.35 11C11.0404 11 11.6 11.5596 11.6 12.25ZM11.6 16.75C11.6 17.4404 11.0404 18 10.35 18C9.65968 18 9.10004 17.4404 9.10004 16.75C9.10004 16.0596 9.65968 15.5 10.35 15.5C11.0404 15.5 11.6 16.0596 11.6 16.75ZM16.1 12.25C16.1 12.9404 15.5404 13.5 14.85 13.5C14.1597 13.5 13.6 12.9404 13.6 12.25C13.6 11.5596 14.1597 11 14.85 11C15.5404 11 16.1 11.5596 16.1 12.25ZM16.1 16.75C16.1 17.4404 15.5404 18 14.85 18C14.1597 18 13.6 17.4404 13.6 16.75C13.6 16.0596 14.1597 15.5 14.85 15.5C15.5404 15.5 16.1 16.0596 16.1 16.75ZM10.35 12.75C10.6262 12.75 10.85 12.5261 10.85 12.25C10.85 11.9739 10.6262 11.75 10.35 11.75C10.0739 11.75 9.85004 11.9739 9.85004 12.25C9.85004 12.5261 10.0739 12.75 10.35 12.75ZM10.35 17.25C10.6262 17.25 10.85 17.0261 10.85 16.75C10.85 16.4739 10.6262 16.25 10.35 16.25C10.0739 16.25 9.85004 16.4739 9.85004 16.75C9.85004 17.0261 10.0739 17.25 10.35 17.25ZM15.35 12.25C15.35 12.5261 15.1262 12.75 14.85 12.75C14.5739 12.75 14.35 12.5261 14.35 12.25C14.35 11.9739 14.5739 11.75 14.85 11.75C15.1262 11.75 15.35 11.9739 15.35 12.25ZM14.85 17.25C15.1262 17.25 15.35 17.0261 15.35 16.75C15.35 16.4739 15.1262 16.25 14.85 16.25C14.5739 16.25 14.35 16.4739 14.35 16.75C14.35 17.0261 14.5739 17.25 14.85 17.25Z" fill="currentColor"/>
    </symbol>
    <symbol width="25" height="24" viewBox="0 0 25 24" fill="none" id="calendar">
        <path fill-rule="evenodd" clip-rule="evenodd" d="M8.60001 2.09998C9.09707 2.09998 9.50001 2.50292 9.50001 2.99998V4.09998H15.7V2.99998C15.7 2.50292 16.103 2.09998 16.6 2.09998C17.0971 2.09998 17.5 2.50292 17.5 2.99998V4.09998H18.6C20.2016 4.09998 21.5 5.39835 21.5 6.99998V18C21.5 19.6016 20.2016 20.9 18.6 20.9H6.60001C4.99839 20.9 3.70001 19.6016 3.70001 18V6.99998C3.70001 5.39835 4.99839 4.09998 6.60001 4.09998H7.70001V2.99998C7.70001 2.50292 8.10296 2.09998 8.60001 2.09998ZM6.60001 5.89998C5.9925 5.89998 5.50001 6.39246 5.50001 6.99998V9.09998H19.7V6.99998C19.7 6.39246 19.2075 5.89998 18.6 5.89998H6.60001ZM19.7 10.9H5.50001V18C5.50001 18.6075 5.9925 19.1 6.60001 19.1H18.6C19.2075 19.1 19.7 18.6075 19.7 18V10.9Z" fill="currentColor"/>
    </symbol>
    <symbol width="25" height="24" viewBox="0 0 25 24" fill="none" id="icon-calendar-edit">
        <path fill-rule="evenodd" clip-rule="evenodd" d="M8.60001 2.1001C9.09707 2.1001 9.50001 2.50304 9.50001 3.0001V4.1001H15.7V3.0001C15.7 2.50304 16.103 2.1001 16.6 2.1001C17.0971 2.1001 17.5 2.50304 17.5 3.0001V4.1001H18.6C20.2016 4.1001 21.5 5.39847 21.5 7.0001V10.0001C21.5 10.4972 21.0971 10.9001 20.6 10.9001C20.103 10.9001 19.7 10.4972 19.7 10.0001V9.9001H5.50001V18.0001C5.50001 18.6076 5.9925 19.1001 6.60001 19.1001H11.6C12.0971 19.1001 12.5 19.503 12.5 20.0001C12.5 20.4972 12.0971 20.9001 11.6 20.9001H6.60001C4.99839 20.9001 3.70001 19.6017 3.70001 18.0001V7.0001C3.70001 5.39847 4.99839 4.1001 6.60001 4.1001H7.70001V3.0001C7.70001 2.50304 8.10296 2.1001 8.60001 2.1001ZM6.60001 5.9001C5.9925 5.9001 5.50001 6.39258 5.50001 7.0001V8.1001H19.7V7.0001C19.7 6.39258 19.2075 5.9001 18.6 5.9001H6.60001ZM20.2364 15.6365L16.8222 19.0507C16.6159 19.257 16.5 19.5368 16.5 19.8285V20.1001H16.7716C17.0633 20.1001 17.3431 19.9842 17.5494 19.7779L20.9636 16.3637C21.1644 16.1629 21.1644 15.8373 20.9636 15.6365C20.7628 15.4357 20.4372 15.4357 20.2364 15.6365ZM18.9636 14.3637C19.8674 13.4599 21.3327 13.4599 22.2364 14.3637C23.1402 15.2675 23.1402 16.7327 22.2364 17.6365L18.8222 21.0507C18.2783 21.5946 17.5407 21.9001 16.7716 21.9001H15.6C15.103 21.9001 14.7 21.4972 14.7 21.0001V19.8285C14.7 19.0594 15.0055 18.3218 15.5494 17.7779L18.9636 14.3637Z" fill="currentColor"/>
    </symbol>
    <symbol width="25" height="24" viewBox="0 0 25 24" fill="none" id="icon-calendar-add">
        <path fill-rule="evenodd" clip-rule="evenodd" d="M8.59995 2.1001C9.09701 2.1001 9.49995 2.50304 9.49995 3.0001V4.1001H15.7V3.0001C15.7 2.50304 16.1029 2.1001 16.6 2.1001C17.097 2.1001 17.5 2.50304 17.5 3.0001V4.1001H18.6C20.2016 4.1001 21.5 5.39847 21.5 7.0001V11.0001C21.5 11.4972 21.097 11.9001 20.6 11.9001C20.1029 11.9001 19.7 11.4972 19.7 11.0001V9.9001H5.49995V18.0001C5.49995 18.6076 5.99244 19.1001 6.59995 19.1001H11.6C12.097 19.1001 12.5 19.503 12.5 20.0001C12.5 20.4972 12.097 20.9001 11.6 20.9001H6.59995C4.99833 20.9001 3.69995 19.6017 3.69995 18.0001V7.0001C3.69995 5.39847 4.99833 4.1001 6.59995 4.1001H7.69995V3.0001C7.69995 2.50304 8.10289 2.1001 8.59995 2.1001ZM6.59995 5.9001C5.99244 5.9001 5.49995 6.39258 5.49995 7.0001V8.1001H19.7V7.0001C19.7 6.39258 19.2075 5.9001 18.6 5.9001H6.59995ZM18.6 14.1001C19.097 14.1001 19.5 14.503 19.5 15.0001V17.1001H21.6C22.097 17.1001 22.5 17.503 22.5 18.0001C22.5 18.4972 22.097 18.9001 21.6 18.9001H19.5V21.0001C19.5 21.4972 19.097 21.9001 18.6 21.9001C18.1029 21.9001 17.7 21.4972 17.7 21.0001V18.9001H15.6C15.1029 18.9001 14.7 18.4972 14.7 18.0001C14.7 17.503 15.1029 17.1001 15.6 17.1001H17.7V15.0001C17.7 14.503 18.1029 14.1001 18.6 14.1001Z" fill="currentColor"/>
    </symbol>
    <symbol width="25" height="24" viewBox="0 0 25 24" fill="none" id="icon-calendar-remove">
      <path fill-rule="evenodd" clip-rule="evenodd" d="M8.60001 2.09998C9.09707 2.09998 9.50001 2.50292 9.50001 2.99998V4.09998H15.7V2.99998C15.7 2.50292 16.103 2.09998 16.6 2.09998C17.0971 2.09998 17.5 2.50292 17.5 2.99998V4.09998H18.6C20.2016 4.09998 21.5 5.39835 21.5 6.99998V11C21.5 11.497 21.0971 11.9 20.6 11.9C20.103 11.9 19.7 11.497 19.7 11V9.89998H5.50001V18C5.50001 18.6075 5.9925 19.1 6.60001 19.1H11.6C12.0971 19.1 12.5 19.5029 12.5 20C12.5 20.497 12.0971 20.9 11.6 20.9H6.60001C4.99839 20.9 3.70001 19.6016 3.70001 18V6.99998C3.70001 5.39835 4.99839 4.09998 6.60001 4.09998H7.70001V2.99998C7.70001 2.50292 8.10296 2.09998 8.60001 2.09998ZM6.60001 5.89998C5.9925 5.89998 5.50001 6.39246 5.50001 6.99998V8.09998H19.7V6.99998C19.7 6.39246 19.2075 5.89998 18.6 5.89998H6.60001ZM15.9637 16.6364C15.6122 16.285 15.6121 15.7151 15.9636 15.3636C16.315 15.0121 16.8849 15.0121 17.2364 15.3635L18.6002 16.7272L19.9636 15.3636C20.315 15.0121 20.8849 15.0121 21.2364 15.3635C21.5879 15.715 21.5879 16.2848 21.2364 16.6363L19.873 18L21.2364 19.3636C21.5879 19.7151 21.5879 20.285 21.2364 20.6364C20.8849 20.9879 20.315 20.9878 19.9636 20.6363L18.6002 19.2728L17.2364 20.6364C16.8849 20.9879 16.315 20.9878 15.9636 20.6363C15.6121 20.2848 15.6122 19.715 15.9637 19.3635L17.3274 18L15.9637 16.6364Z" fill="currentColor"/>
    </symbol>
    <symbol width="25" height="24" viewBox="0 0 25 24" fill="none" id="icon-car">
        <path fill-rule="evenodd" clip-rule="evenodd" d="M7.64488 6.21821C7.32204 6.21821 7.01868 6.37269 6.8288 6.63379L6.10093 6.10443L6.82879 6.63379L3.75455 10.8609V16.7728C3.75455 17.3301 4.20633 17.7818 4.76364 17.7818C5.32094 17.7818 5.77273 17.3301 5.77273 16.7728C5.77273 16.2757 6.17567 15.8728 6.67273 15.8728H18.1273C18.6243 15.8728 19.0273 16.2757 19.0273 16.7728C19.0273 17.3301 19.4791 17.7819 20.0364 17.7819C20.5937 17.7819 21.0455 17.3301 21.0455 16.7728V11.0304L17.9615 6.64668C17.7725 6.37806 17.4646 6.21821 17.1362 6.21821H7.64488ZM22.8455 11.6455V16.7728C22.8455 18.3242 21.5878 19.5819 20.0364 19.5819C18.7997 19.5819 17.7497 18.7828 17.3745 17.6728H7.42546C7.05028 18.7828 6.00028 19.5818 4.76364 19.5818C3.21222 19.5818 1.95455 18.3242 1.95455 16.7728V11.4682H1.9C1.40294 11.4682 1 11.0653 1 10.5682C1 10.0712 1.40294 9.66821 1.9 9.66821H2.39624L5.37307 5.57508C5.90168 4.84824 6.74615 4.41821 7.64488 4.41821H17.1362C18.0505 4.41821 18.9076 4.86319 19.4336 5.61098L22.4127 9.84549H22.9C23.3971 9.84549 23.8 10.2484 23.8 10.7455C23.8 11.2425 23.3971 11.6455 22.9 11.6455H22.8455ZM5.77273 12.9546C5.77273 12.4575 6.17567 12.0546 6.67273 12.0546H8.58182C9.07887 12.0546 9.48182 12.4575 9.48182 12.9546C9.48182 13.4516 9.07887 13.8546 8.58182 13.8546H6.67273C6.17567 13.8546 5.77273 13.4516 5.77273 12.9546ZM15.3182 12.9546C15.3182 12.4575 15.7211 12.0546 16.2182 12.0546H18.1273C18.6243 12.0546 19.0273 12.4575 19.0273 12.9546C19.0273 13.4516 18.6243 13.8546 18.1273 13.8546H16.2182C15.7211 13.8546 15.3182 13.4516 15.3182 12.9546Z" fill="currentColor"/>
    </symbol>
    <symbol width="25" height="24" viewBox="0 0 25 24" fill="none" id="icon-card-link">
        <path fill-rule="evenodd" clip-rule="evenodd" d="M5.4 5.89998C4.79249 5.89998 4.3 6.39246 4.3 6.99998V9.09998H20.5V6.99973C20.5 6.39236 20.0077 5.89998 19.4 5.89998H5.4ZM4.3 10.9H21.4C21.8971 10.9 22.3 10.497 22.3 9.99998V6.99973C22.3 5.39796 21.0015 4.09998 19.4 4.09998H5.4C3.79837 4.09998 2.5 5.39835 2.5 6.99998V17C2.5 18.6015 3.79812 19.9 5.39984 19.9H12.4C12.8971 19.9 13.3 19.497 13.3 19C13.3 18.5029 12.8971 18.1 12.4 18.1H5.39984C4.79242 18.1 4.3 17.6076 4.3 17V10.9Z" fill="currentColor"/>
        <path fill-rule="evenodd" clip-rule="evenodd" d="M19.0364 13.3636C19.3879 13.7151 19.3879 14.2849 19.0364 14.6364L18.5728 15.1H20.9C22.5016 15.1 23.8 16.3984 23.8 18V20C23.8 20.497 23.3971 20.9 22.9 20.9C22.4029 20.9 22 20.497 22 20V18C22 17.3925 21.5075 16.9 20.9 16.9H18.5728L19.0364 17.3636C19.3879 17.7151 19.3879 18.2849 19.0364 18.6364C18.6849 18.9878 18.1151 18.9878 17.7636 18.6364L15.7636 16.6364C15.4121 16.2849 15.4121 15.7151 15.7636 15.3636L17.7636 13.3636C18.1151 13.0121 18.6849 13.0121 19.0364 13.3636Z" fill="currentColor"/>
    </symbol>
    <symbol width="25" height="24" viewBox="0 0 25 24" fill="none" id="icon-carousel">
        <path fill-rule="evenodd" clip-rule="evenodd" d="M10.3332 4.99443C11.0275 4.82086 11.7 5.34596 11.7 6.06158V17.9385C11.7 18.6541 11.0275 19.1792 10.3332 19.0056L6.33321 18.0056C5.84353 17.8832 5.5 17.4432 5.5 16.9385V7.06158C5.5 6.55683 5.84353 6.11685 6.33321 5.99443L10.3332 4.99443ZM13.5 6.06158C13.5 4.17493 11.727 2.79059 9.89665 3.24817L5.89665 4.24817C4.60566 4.57092 3.7 5.73087 3.7 7.06158V16.9385C3.7 18.2692 4.60566 19.4291 5.89665 19.7519L9.89665 20.7519C11.727 21.2095 13.5 19.8251 13.5 17.9385V6.06158ZM16.6 4.10003C16.1029 4.10003 15.7 4.50298 15.7 5.00003V19C15.7 19.4971 16.1029 19.9 16.6 19.9C17.0971 19.9 17.5 19.4971 17.5 19V5.00003C17.5 4.50298 17.0971 4.10003 16.6 4.10003ZM20.6 5.10003C20.1029 5.10003 19.7 5.50298 19.7 6.00003V18C19.7 18.4971 20.1029 18.9 20.6 18.9C21.0971 18.9 21.5 18.4971 21.5 18V6.00003C21.5 5.50298 21.0971 5.10003 20.6 5.10003Z" fill="currentColor"/>
    </symbol>
    <symbol width="25" height="24" viewBox="0 0 25 24" fill="none" id="icon-chart">
        <path fill-rule="evenodd" clip-rule="evenodd" d="M10.3001 3.1001C10.7971 3.1001 11.2001 3.50304 11.2001 4.0001V12.0001C11.2001 12.4972 10.7971 12.9001 10.3001 12.9001C9.803 12.9001 9.40005 12.4972 9.40005 12.0001V4.0001C9.40005 3.50304 9.803 3.1001 10.3001 3.1001ZM4.80005 7.1001C5.29711 7.1001 5.70005 7.50304 5.70005 8.0001V16.0001C5.70005 16.4972 5.29711 16.9001 4.80005 16.9001C4.303 16.9001 3.90005 16.4972 3.90005 16.0001V8.0001C3.90005 7.50304 4.303 7.1001 4.80005 7.1001ZM20.8001 7.1001C21.2971 7.1001 21.7001 7.50304 21.7001 8.0001V16.0001C21.7001 16.4972 21.2971 16.9001 20.8001 16.9001C20.303 16.9001 19.9001 16.4972 19.9001 16.0001V8.0001C19.9001 7.50304 20.303 7.1001 20.8001 7.1001ZM15.3001 11.1001C15.7971 11.1001 16.2001 11.503 16.2001 12.0001V20.0001C16.2001 20.4972 15.7971 20.9001 15.3001 20.9001C14.803 20.9001 14.4001 20.4972 14.4001 20.0001V12.0001C14.4001 11.503 14.803 11.1001 15.3001 11.1001Z" fill="currentColor"/>
    </symbol>
    <symbol width="25" height="24" viewBox="0 0 25 24" fill="none" id="icon-check-all">
       <path fill-rule="evenodd" clip-rule="evenodd" d="M9.43997 5.27991C9.83762 5.57814 9.91821 6.14226 9.61997 6.53991L6.61997 10.5399C6.33338 10.922 5.79818 11.0137 5.40074 10.7488L3.90074 9.74875C3.48717 9.47303 3.37541 8.91425 3.65113 8.50068C3.92685 8.0871 4.48563 7.97534 4.8992 8.25106L5.69081 8.7788L8.17997 5.45991C8.47821 5.06226 9.04233 4.98167 9.43997 5.27991ZM12.5 7.99991C12.5 7.50285 12.9029 7.09991 13.4 7.09991H20.4C20.897 7.09991 21.3 7.50285 21.3 7.99991C21.3 8.49696 20.897 8.89991 20.4 8.89991H13.4C12.9029 8.89991 12.5 8.49696 12.5 7.99991ZM9.43997 13.2799C9.83762 13.5781 9.91821 14.1423 9.61997 14.5399L6.61997 18.5399C6.33338 18.922 5.79818 19.0137 5.40074 18.7488L3.90074 17.7488C3.48717 17.473 3.37541 16.9143 3.65113 16.5007C3.92685 16.0871 4.48563 15.9753 4.8992 16.2511L5.69081 16.7788L8.17997 13.4599C8.47821 13.0623 9.04233 12.9817 9.43997 13.2799ZM12.5 15.9999C12.5 15.5029 12.9029 15.0999 13.4 15.0999H20.4C20.897 15.0999 21.3 15.5029 21.3 15.9999C21.3 16.497 20.897 16.8999 20.4 16.8999H13.4C12.9029 16.8999 12.5 16.497 12.5 15.9999Z" fill="currentColor"/>
    </symbol>
    <symbol width="25" height="24" viewBox="0 0 25 24" fill="none" id="icon-checklist">
        <path fill-rule="evenodd" clip-rule="evenodd" d="M3.70001 6.0001C3.70001 4.39847 4.99839 3.1001 6.60001 3.1001H18.6C20.2016 3.1001 21.5 4.39847 21.5 6.0001V10.0001C21.5 10.4972 21.0971 10.9001 20.6 10.9001C20.103 10.9001 19.7 10.4972 19.7 10.0001V6.0001C19.7 5.39258 19.2075 4.9001 18.6 4.9001H6.60001C5.9925 4.9001 5.50001 5.39258 5.50001 6.0001V18.0001C5.50001 18.6076 5.9925 19.1001 6.60001 19.1001H10.6C11.0971 19.1001 11.5 19.503 11.5 20.0001C11.5 20.4972 11.0971 20.9001 10.6 20.9001H6.60001C4.99839 20.9001 3.70001 19.6017 3.70001 18.0001V6.0001ZM11.6796 7.03236C12.0772 7.33059 12.1578 7.89471 11.8596 8.29236L9.98797 10.7879C9.70137 11.17 9.16617 11.2617 8.76874 10.9967L7.64374 10.2467C7.23016 9.97099 7.1184 9.41221 7.39412 8.99864C7.66984 8.58506 8.22862 8.4733 8.6422 8.74902L9.0588 9.02676L10.4196 7.21236C10.7178 6.81471 11.282 6.73412 11.6796 7.03236ZM13.758 9.00011C13.758 8.50306 14.1609 8.10011 14.658 8.10011H16.658C17.155 8.10011 17.558 8.50306 17.558 9.00011C17.558 9.49717 17.155 9.90011 16.658 9.90011H14.658C14.1609 9.90011 13.758 9.49717 13.758 9.00011ZM11.6796 13.0335C12.0772 13.3317 12.1578 13.8958 11.8596 14.2935L9.98797 16.789C9.70137 17.1711 9.16617 17.2628 8.76874 16.9978L7.64374 16.2478C7.23016 15.9721 7.1184 15.4133 7.39412 14.9998C7.66984 14.5862 8.22862 14.4744 8.6422 14.7501L9.0588 15.0279L10.4196 13.2135C10.7178 12.8158 11.282 12.7353 11.6796 13.0335ZM19.0849 15.5151C18.2648 14.695 16.9352 14.695 16.1151 15.5151C15.295 16.3352 15.295 17.6649 16.1151 18.485C16.9352 19.3051 18.2648 19.3051 19.0849 18.485C19.905 17.6649 19.905 16.3352 19.0849 15.5151ZM14.8423 14.2423C16.3653 12.7193 18.8347 12.7193 20.3577 14.2423C21.6617 15.5464 21.8493 17.5441 20.9203 19.0476L22.2364 20.3637C22.5879 20.7151 22.5879 21.285 22.2364 21.6365C21.8849 21.9879 21.3151 21.9879 20.9636 21.6365L19.6475 20.3204C18.144 21.2493 16.1463 21.0618 14.8423 19.7578C13.3193 18.2347 13.3193 15.7654 14.8423 14.2423Z" fill="currentColor"/>
    </symbol>
    <symbol width="24" height="24" viewBox="0 0 24 24" fill="none" id="icon-checkmark-large">
        <path fill-rule="evenodd" clip-rule="evenodd" d="M21.5314 3.27362C21.9326 3.56711 22.0198 4.13024 21.7264 4.53139L10.0205 20.5314C9.87587 20.729 9.65698 20.8592 9.41429 20.8919C9.17159 20.9246 8.92605 20.857 8.7343 20.7047L2.44018 15.7047C2.05098 15.3955 1.98611 14.8294 2.29529 14.4402C2.60447 14.051 3.17061 13.9861 3.55981 14.2953L9.12069 18.7128L20.2736 3.46856C20.5671 3.0674 21.1303 2.98012 21.5314 3.27362Z" fill="currentColor"/>
    </symbol>
    <symbol width="25" height="24" viewBox="0 0 25 24" fill="none" id="icon-checkmark-small">
        <path fill-rule="evenodd" clip-rule="evenodd" d="M19.3926 6.52268C19.7667 6.84999 19.8046 7.41858 19.4773 7.79265L11.0773 17.3927C10.9133 17.5801 10.6789 17.6912 10.4299 17.6995C10.181 17.7078 9.9397 17.6125 9.76357 17.4364L6.16357 13.8364C5.8121 13.4849 5.8121 12.9151 6.16357 12.5636C6.51504 12.2121 7.08489 12.2121 7.43636 12.5636L10.3561 15.4834L18.1226 6.60735C18.45 6.23327 19.0185 6.19537 19.3926 6.52268Z" fill="currentColor"/>
    </symbol>



</svg>